<?xml version="1.0" encoding="UTF-8"?>
<svg id="Layer_2" data-name="Layer 2" xmlns="http://www.w3.org/2000/svg" viewBox="0 0 116.29 78.06">
  <defs>
    <style>
      .cls-1 {
        fill: #001b72;
      }
    </style>
  </defs>
  <g id="Artwork">
    <path class="cls-1" d="M116.29,42.51h-9.49c.43,0-2.88-.14-2.88-.14v-3.02s-2.24,0-5.12,0-3.52,3.02-3.52,3.02l-1.49-2.33h-1.17s-2.24-3.02-2.24-3.02h-1.71s1.6-6.31,1.6-6.31h1.39s-2.13-2.47-2.13-2.47h-4.57s-.3-10.37-.3-10.37l-.3,10.37h-3.62s-.31-13.62-.31-13.62l-.31,13.62h-3.55s-.31-13.62-.31-13.62l-.3,13.62h-.48s0-.91,0-.91c0-.63-.4-1.14-.89-1.14s-.89.51-.89,1.14v.91s-.6,0-.6,0l-2.35-5.61,3.89-1.97h-1.76s0-.79,0-.79h1.37v-.42h-3.34v.42h1.61s0,.79,0,.79h-2.6s-1.38-3.29-1.38-3.29l3.94-2h-1.41s0-1.06,0-1.06h1.37v-.42h-3.34v.42h1.61s0,1.06,0,1.06h-3.01s-1.22-2.92-1.22-2.92v2.92s-.89,0-.89,0V4.39s2.7,0,2.7,0v-.09s0-.64,0-.64v-1.89h-.57v1.89s-2.35,0-2.35,0v-1.89h-.33v1.89s-.61,0-.61,0V0h-.33v3.66s-.56,0-.56,0V.9s-.33,0-.33,0v2.77s-1.31,0-1.31,0v.73h2.7s0,23.84,0,23.84h-3.77s-2.56,2.61-2.56,2.61h1.71s1.17,6.45,1.17,6.45h-8.21s-1.28,2.28-1.28,2.28h-13.15s-2.63,0-2.63,0v1.79s0,6.15,0,6.15h-1.07s0-8.3,0-8.3l-10.77-25.94h-1.17s-3.52-6.31-3.52-6.31l.25,6.52h-8.92v6.12h9.91s4.4,20.85,4.4,20.85v7s-2.56-3.16-2.56-3.16H0v4.67s.75,1.24.75,1.24c0,0,.07,1.36.18,3.49h109.38s5.99-11.18,5.99-11.18ZM18.56,13.97h1.12s.05,1.23.05,1.23l.03.16h-1.2s0-1.38,0-1.38ZM18.56,15.84h1.3s.29,1.38.29,1.38h-1.59s0-1.38,0-1.38ZM13.64,19.1h-2.52s0-1.38,0-1.38h2.52s0,1.38,0,1.38ZM13.64,17.23h-2.52s0-1.38,0-1.38h2.52s0,1.38,0,1.38ZM13.64,15.35h-2.52s0-1.38,0-1.38h2.52s0,1.38,0,1.38ZM18.17,19.1h-4.15s0-1.38,0-1.38h4.15s0,1.38,0,1.38ZM18.17,17.23h-4.15s0-1.38,0-1.38h4.15s0,1.38,0,1.38ZM18.17,15.35h-4.15s0-1.38,0-1.38h4.15s0,1.38,0,1.38ZM18.56,19.1v-1.38s1.7,0,1.7,0l.29,1.38h-1.99ZM38.55,41.37h2.26s-2.26,1.37-2.26,1.37v-1.37ZM49.96,42.69h-7.5v.89h7s-2.24,4.01-2.24,4.01l-8.67-.05v-4.25s3.16-1.92,3.16-1.92h8.99s-.74,1.32-.74,1.32ZM76.61,44.61h.07s.09.13.09.13l.09-.13h.07s0,.31,0,.31h-.08s0-.14,0-.14l-.08.11-.08-.11v.14s-.08,0-.08,0v-.31ZM76.29,44.61h.3s0,.09,0,.09h-.11v.22s-.08,0-.08,0v-.22h-.11s0-.09,0-.09ZM73.9,31.53h2.34s0,3.02,0,3.02h-2.34s0-3.02,0-3.02ZM73.79,39.21c.21,0,.38.22.38.49v1.84c0,.27-.17.49-.38.49h-.88c-.21,0-.38-.22-.38-.49v-1.84c0-.27.17-.49.38-.49h.88ZM70.68,31.53h2.34s0,3.02,0,3.02h-2.34s0-3.02,0-3.02ZM70.98,44.27c1.06.16,2.4.47,3.37,1.58.1.13.24.33.31.48-.14.35-.5.76-.92,1.07-.47.34-1.07.64-1.82.81-1.2.27-2.41.27-2.41.27,0,0,1.85-.24,2.87-1.7.04.05.14.09.23.09.21,0,.39-.25.39-.53,0-.28-.14-.48-.38-.51-.13-.02-.27.1-.27.1,0,0-.64-1.27-2.86-1.73,0,0,.64-.02,1.48.08ZM69.29,42.03h-.88c-.21,0-.38-.22-.38-.49v-1.84c0-.27.17-.49.38-.49h.88c.21,0,.38.22.38.49v1.84c0,.27-.17.49-.38.49ZM67.46,31.53h2.35s0,3.02,0,3.02h-2.35s0-3.02,0-3.02ZM68.63,44.27c1.06.16,2.41.47,3.37,1.58.1.13.24.33.31.48-.14.35-.5.76-.92,1.07-.47.34-1.07.64-1.83.81-1.2.27-2.41.27-2.41.27,0,0,1.85-.24,2.87-1.7.04.05.14.09.23.09.21,0,.39-.25.39-.53,0-.28-.14-.48-.38-.51-.12-.02-.27.1-.27.1,0,0-.64-1.27-2.86-1.73,0,0,.64-.02,1.48.08ZM67.91,45.82c-.13-.02-.27.1-.27.1,0,0-.64-1.27-2.86-1.73,0,0,.64-.02,1.48.08,1.06.16,2.41.47,3.37,1.58.1.13.24.33.31.48-.14.35-.5.76-.92,1.07-.47.34-1.07.64-1.82.81-1.2.27-2.41.27-2.41.27,0,0,1.85-.24,2.87-1.7.04.05.14.09.23.09.21,0,.39-.25.39-.53,0-.28-.14-.48-.38-.51ZM65.62,15.97l.89,1.14v3.53s-.89,0-.89,0v-4.68ZM65.62,21.26l.89,1.14v5.83s-.89,0-.89,0v-6.98ZM64.23,31.53h2.34s0,3.02,0,3.02h-2.34s0-3.02,0-3.02ZM62.49,41.54c0,.27-.17.49-.38.49h-.88c-.21,0-.38-.22-.38-.49v-1.84c0-.27.17-.49.38-.49h.88c.21,0,.38.22.38.49v1.84ZM63.36,34.55h-1.84s-.5-3.02-.5-3.02h2.35s0,3.02,0,3.02ZM63.83,42.03c-.21,0-.38-.22-.38-.49v-1.84c0-.27.17-.49.38-.49h.88c.21,0,.38.22.38.49v1.84c0,.27-.17.49-.38.49h-.88ZM65.63,51.04c-.32,0-.58-.09-.84-.3l-.02-.02.19-.28h.01c.23.19.44.28.65.28.23,0,.38-.09.38-.22,0-.09-.1-.16-.27-.18-.04,0-.08,0-.11,0-.2-.01-.37-.03-.51-.09-.16-.08-.25-.21-.25-.36,0-.28.26-.47.64-.47.26,0,.52.09.78.27l.02.02-.19.28h-.01c-.21-.17-.39-.25-.59-.25-.17,0-.3.06-.3.14,0,.02.01.04.04.06.08.06.19.07.34.07.07,0,.14,0,.23.02.34.04.55.23.55.5s-.22.53-.71.53ZM68.02,51h-1.35s0-1.58,0-1.58h1.29s0,.32,0,.32h-.96v.27h.58s0,.32,0,.32h-.58v.36h1.02s0,.32,0,.32ZM69.7,51l-.2-.38h-.71s-.19.38-.19.38h-.36s.02-.04.02-.04l.77-1.54h.24s0,.01,0,.01l.79,1.57h-.37ZM71.57,51h-1.28s0-1.58,0-1.58h.33s0,1.26,0,1.26h.95s0,.32,0,.32ZM72.51,51.04c-.48,0-.83-.35-.83-.82s.35-.83.83-.83.83.35.83.83-.35.82-.83.82ZM74.74,51l-.36-.62h-.45v.62s-.33,0-.33,0v-1.58s.91,0,.91,0c.33,0,.53.18.53.47,0,.21-.12.38-.31.45l.38.66h-.37ZM76.09,51h-.7s0-1.58,0-1.58h.7c.5,0,.84.32.84.8s-.33.78-.84.78ZM76.09,47.4c-.47.34-1.07.64-1.83.81-1.2.27-2.41.27-2.41.27,0,0,1.85-.24,2.87-1.7.04.05.14.09.23.09.21,0,.39-.25.39-.53,0-.28-.14-.48-.38-.51-.12-.02-.27.1-.27.1,0,0-.63-1.27-2.86-1.73,0,0,.64-.02,1.48.08,1.06.16,2.4.47,3.37,1.58.1.13.24.33.31.48-.14.35-.5.76-.92,1.07ZM78.68,41.54c0,.27-.17.49-.38.49h-.88c-.21,0-.38-.22-.38-.49v-1.84c0-.27.17-.49.38-.49h.88c.21,0,.38.22.38.49v1.84ZM79.47,34.55h-2.35s0-3.02,0-3.02h2.35s0,3.02,0,3.02ZM81.33,41.54c0,.27-.17.49-.38.49h-.88c-.21,0-.38-.22-.38-.49v-1.84c0-.27.17-.49.38-.49h.88c.21,0,.38.22.38.49v1.84ZM82.69,34.55h-2.34s0-3.02,0-3.02h2.34s0,3.02,0,3.02ZM85.92,34.55h-2.35s0-3.02,0-3.02h2.35s0,3.02,0,3.02ZM86.79,34.55v-3.02s2.34,0,2.34,0l-.65,3.02h-1.69ZM109.36,65.29c-4.69-1.24-1.39-7.28-1.39-7.28l1.09-2.04H1.04c.1,2.11.23,4.63.35,7.25.32,6.86,2.98,7.55,2.98,7.55v6.04h6.4s.64,1.24.64,1.24c0,0,80.48,0,89,0,8.53,0,11.73-2.74,13.11-4.94,1.39-2.2.53-6.59-4.16-7.82ZM72.51,49.71c-.29,0-.49.21-.49.51s.21.5.49.5.49-.21.49-.5-.21-.51-.49-.51ZM76.09,49.74h-.37v.94h.37c.31,0,.5-.18.5-.47v-.03c-.01-.27-.21-.45-.5-.45ZM68.95,50.3h.4s-.2-.39-.2-.39l-.2.39ZM73.92,49.74v.32h.57c.13,0,.2-.05.2-.15v-.03c-.01-.09-.08-.13-.19-.13h-.58Z"/>
  </g>
</svg>