<?xml version="1.0" encoding="UTF-8"?>
<svg id="Layer_2" data-name="Layer 2" xmlns="http://www.w3.org/2000/svg" viewBox="0 0 113.39 113.39">
  <defs>
    <style>
      .cls-1 {
        stroke-width: .25px;
      }

      .cls-1, .cls-2 {
        fill: none;
        stroke: #001b72;
        stroke-miterlimit: 10;
      }

      .cls-3 {
        fill: #001b72;
      }

      .cls-2 {
        stroke-width: 2.5px;
      }
    </style>
  </defs>
  <g id="Isolation_Mode" data-name="Isolation Mode">
    <g>
      <path class="cls-2" d="M56.69,99.21c-23.45,0-42.52-19.07-42.52-42.52S33.25,14.17,56.69,14.17s42.52,19.07,42.52,42.52-19.07,42.52-42.52,42.52h0Z"/>
      <polygon class="cls-3" points="30.14 56.65 21.98 55.55 22.21 53.85 25.47 54.29 25.95 50.73 22.69 50.29 22.92 48.59 31.07 49.68 30.85 51.38 27.35 50.92 26.88 54.48 30.37 54.95 30.14 56.65 30.14 56.65"/>
      <polygon class="cls-3" points="31.85 47.95 24.18 44.96 24.8 43.36 32.47 46.35 31.85 47.95 31.85 47.95"/>
      <path class="cls-3" d="M29.65,42.47l-.21-.15c-1.98-1.39-2.47-3.68-1.09-5.65,1.15-1.64,2.88-2.03,4.39-1.27l-1,1.42c-.85-.34-1.66-.13-2.24.68-.81,1.16-.36,2.43.96,3.35l.21.15c1.33.93,2.68.88,3.5-.28.81-1.15.5-2.22-.36-2.85l-1.33,1.89-1.1-.77,2.16-3.08,3.74,2.63-.73,1.04-.95-.5c.35.76.23,1.79-.4,2.68-1.3,1.85-3.57,2.08-5.55.69h0Z"/>
      <polygon class="cls-3" points="38.28 37.57 33.39 30.94 34.78 29.92 36.73 32.57 39.63 30.44 37.67 27.79 39.05 26.77 43.94 33.4 42.56 34.42 40.47 31.58 37.57 33.71 39.66 36.55 38.28 37.57 38.28 37.57"/>
      <path class="cls-3" d="M52.3,27.86l.7.78c.34-.54.43-1.27.27-2.14l-.05-.25c-.31-1.63-1.3-2.52-2.71-2.25-1.41.27-2,1.45-1.7,3.08l.05.25c.31,1.62,1.3,2.51,2.7,2.24.13-.02.25-.06.36-.09l-1.18-1.32,1.56-.29h0ZM55,26.17c.28,1.46-.07,2.76-.94,3.66l1.21,1.35-1.57.3-.76-.85c-.34.16-.7.27-1.11.35-2.43.46-4.28-.95-4.72-3.32l-.05-.25c-.45-2.37.76-4.36,3.19-4.82,2.43-.46,4.26.95,4.71,3.33l.05.25h0Z"/>
      <path class="cls-3" d="M57.39,26.98l.7-4.99,1.7.24-.69,4.95c-.17,1.24.27,1.98,1.46,2.15,1.17.16,1.81-.41,1.99-1.68l.69-4.94,1.7.24-.69,4.98c-.3,2.13-1.62,3.17-3.89,2.85-2.26-.32-3.26-1.67-2.96-3.8h0Z"/>
      <path class="cls-3" d="M68.33,29.58l2.1,1.01.36-3.47-2.46,2.46h0ZM70.08,33.91l.2-1.86-2.99-1.43-1.33,1.32-1.57-.75,6.37-6.09,1.69.81-.74,8.78-1.62-.78h0Z"/>
      <polygon class="cls-3" points="72.5 35.51 77.98 29.37 79.26 30.51 74.71 35.6 77.14 37.77 76.21 38.82 72.5 35.51 72.5 35.51"/>
      <polygon class="cls-3" points="77.31 40.3 83.91 35.38 84.94 36.76 78.34 41.67 77.31 40.3 77.31 40.3"/>
      <polygon class="cls-3" points="80.34 45.06 86.56 42.24 85.59 40.1 86.87 39.52 89.5 45.33 88.23 45.91 87.26 43.79 81.04 46.61 80.34 45.06 80.34 45.06"/>
      <polygon class="cls-3" points="82.67 52.23 85.32 51.86 90.44 48.3 90.69 50.12 87.04 52.51 91.2 53.8 91.44 55.58 85.56 53.55 82.9 53.92 82.67 52.23 82.67 52.23"/>
      <path class="cls-3" d="M33.73,76.4l1.12,1.19c.56.59,1.21.77,1.81.21l.1-.09c.6-.56.46-1.22-.1-1.82l-1.12-1.19-1.81,1.7h0ZM29.41,78.14l6-5.63,2.39,2.54c1.17,1.25,1.38,2.79.15,3.94l-.1.09c-1.23,1.16-2.74.86-3.92-.4l-1.24-1.32-2.13,2-1.15-1.23h0Z"/>
      <path class="cls-3" d="M40.34,82.18l1.52.88c.7.41,1.38.38,1.79-.32l.07-.12c.41-.71.08-1.3-.62-1.71l-1.52-.88-1.24,2.15h0ZM36.72,85.09l4.12-7.13,3.12,1.8c1.49.86,2.13,2.27,1.29,3.73l-.07.12c-.63,1.09-1.64,1.45-2.73,1.21l.23,3.71-1.67-.96-.16-3.46-1.21-.7-1.46,2.53-1.46-.84h0Z"/>
      <path class="cls-3" d="M52.59,87.09l.05-.25c.34-1.62-.23-2.82-1.63-3.12-1.41-.3-2.41.57-2.75,2.2l-.05.25c-.34,1.61.24,2.81,1.64,3.1,1.41.3,2.41-.57,2.75-2.19h0ZM46.46,85.81l.05-.25c.5-2.36,2.37-3.73,4.79-3.23,2.42.51,3.57,2.51,3.08,4.88l-.05.25c-.5,2.36-2.36,3.74-4.78,3.23-2.42-.51-3.58-2.52-3.09-4.88h0Z"/>
      <polygon class="cls-3" points="58.78 91.22 58.21 84.41 55.87 84.61 55.75 83.21 62.12 82.67 62.23 84.07 59.91 84.27 60.48 91.08 58.78 91.22 58.78 91.22"/>
      <polygon class="cls-3" points="66.3 90.05 63.37 82.36 68.89 80.25 69.39 81.56 65.45 83.06 66.14 84.87 69.73 83.5 70.22 84.8 66.64 86.17 67.39 88.13 71.4 86.6 71.9 87.91 66.3 90.05 66.3 90.05"/>
      <polygon class="cls-3" points="74.92 86.1 70.41 79.21 71.84 78.27 76.36 85.16 74.92 86.1 74.92 86.1"/>
      <polygon class="cls-3" points="79.51 82.92 73.49 77.29 74.87 75.82 81.47 77.31 77.21 73.32 78.32 72.14 84.33 77.77 83.03 79.16 76.22 77.6 80.63 81.73 79.51 82.92 79.51 82.92"/>
      <path class="cls-3" d="M59.84,53.35c-2.85-1.87-5.57-3.65-7.73-4.16l2.55-2.55c1.89-.03,5.09,2.07,8.18,4.09,2.85,1.87,5.57,3.65,7.73,4.16l-2.55,2.55c-1.89.03-5.09-2.07-8.18-4.09h0ZM62.08,63c-1.32-.15-3.13-1.11-5.08-2.32-.51-.82-1.07-1.67-1.61-2.49-1.9-2.9-3.86-5.89-4.07-7.81,1.32.15,3.13,1.11,5.08,2.32.51.82,1.07,1.67,1.61,2.49,1.9,2.9,3.86,5.89,4.07,7.81h0ZM58.73,66.74c-1.89.03-5.09-2.07-8.18-4.09-2.85-1.87-5.57-3.65-7.73-4.16l2.55-2.55c1.89-.03,5.09,2.07,8.18,4.09,2.85,1.87,5.57,3.65,7.73,4.16l-2.55,2.55h0ZM48.22,64.91c1.82,3.32,3.7,6.75,3.65,8.69l-2.53,2.53c-.45-2.21-2.03-5.1-3.69-8.13-1.71-3.12-3.48-6.34-3.64-8.32,1.17.13,2.73.9,4.43,1.92.55,1.08,1.17,2.22,1.78,3.32h0ZM65.17,48.48c-1.82-3.32-3.7-6.75-3.65-8.69l2.53-2.53c.45,2.21,2.03,5.1,3.69,8.13,1.71,3.12,3.48,6.34,3.64,8.32-1.17-.13-2.73-.9-4.43-1.92-.55-1.08-1.17-2.22-1.78-3.32h0ZM68.38,58.74c.15-.02.29-.08.39-.19l3.72-3.72c.11-.11.17-.25.19-.39h0c.26-2.3-1.71-5.88-3.79-9.68-1.89-3.45-3.85-7.02-3.64-8.9.03-.28-.12-.54-.37-.66-.25-.12-.55-.07-.75.13l-3.72,3.72c-.11.11-.17.24-.19.39-.25,2.3,1.71,5.88,3.79,9.68.23.43.47.86.7,1.29-.39-.25-.77-.5-1.16-.76-3.57-2.34-6.94-4.54-9.26-4.28-.15.02-.29.08-.39.19l-3.72,3.72c-.11.11-.17.25-.19.39h0c-.26,2.33,1.95,5.69,4.28,9.26.01.02.02.04.04.06-.02-.01-.04-.02-.06-.04-3.57-2.34-6.94-4.54-9.26-4.29-.15.02-.29.08-.39.19l-3.72,3.72c-.11.11-.17.25-.19.39h0c-.26,2.3,1.71,5.88,3.79,9.68,1.89,3.45,3.85,7.02,3.64,8.9-.02.2.05.4.19.54.05.05.11.09.18.13.25.12.55.07.75-.13l3.72-3.72c.11-.11.17-.24.19-.39.25-2.3-1.71-5.88-3.79-9.68-.23-.43-.47-.85-.7-1.29.39.25.77.5,1.16.76,3.57,2.34,6.94,4.54,9.26,4.29.15-.02.29-.08.39-.19l3.72-3.72c.11-.11.17-.25.19-.39h0c.26-2.33-1.95-5.7-4.28-9.26-.01-.02-.02-.04-.04-.06.02.01.04.02.06.04,3.57,2.34,6.94,4.54,9.26,4.28h0Z"/>
      <path class="cls-1" d="M59.84,53.35c-2.85-1.87-5.57-3.65-7.73-4.16l2.55-2.55c1.89-.03,5.09,2.07,8.18,4.09,2.85,1.87,5.57,3.65,7.73,4.16l-2.55,2.55c-1.89.03-5.09-2.07-8.18-4.09h0ZM62.08,63c-1.32-.15-3.13-1.11-5.08-2.32-.51-.82-1.07-1.67-1.61-2.49-1.9-2.9-3.86-5.89-4.07-7.81,1.32.15,3.13,1.11,5.08,2.32.51.82,1.07,1.67,1.61,2.49,1.9,2.9,3.86,5.89,4.07,7.81h0ZM58.73,66.74c-1.89.03-5.09-2.07-8.18-4.09-2.85-1.87-5.57-3.65-7.73-4.16l2.55-2.55c1.89-.03,5.09,2.07,8.18,4.09,2.85,1.87,5.57,3.65,7.73,4.16l-2.55,2.55h0ZM48.22,64.91c1.82,3.32,3.7,6.75,3.65,8.69l-2.53,2.53c-.45-2.21-2.03-5.1-3.69-8.13-1.71-3.12-3.48-6.34-3.64-8.32,1.17.13,2.73.9,4.43,1.92.55,1.08,1.17,2.22,1.78,3.32h0ZM65.17,48.48c-1.82-3.32-3.7-6.75-3.65-8.69l2.53-2.53c.45,2.21,2.03,5.1,3.69,8.13,1.71,3.12,3.48,6.34,3.64,8.32-1.17-.13-2.73-.9-4.43-1.92-.55-1.08-1.17-2.22-1.78-3.32h0ZM68.38,58.74c.15-.02.29-.08.39-.19l3.72-3.72c.11-.11.17-.25.19-.39h0c.26-2.3-1.71-5.88-3.79-9.68-1.89-3.45-3.85-7.02-3.64-8.9.03-.28-.12-.54-.37-.66-.25-.12-.55-.07-.75.13l-3.72,3.72c-.11.11-.17.24-.19.39-.25,2.3,1.71,5.88,3.79,9.68.23.43.47.86.7,1.29-.39-.25-.77-.5-1.16-.76-3.57-2.34-6.94-4.54-9.26-4.28-.15.02-.29.08-.39.19l-3.72,3.72c-.11.11-.17.25-.19.39h0c-.26,2.33,1.95,5.69,4.28,9.26.01.02.02.04.04.06-.02-.01-.04-.02-.06-.04-3.57-2.34-6.94-4.54-9.26-4.29-.15.02-.29.08-.39.19l-3.72,3.72c-.11.11-.17.25-.19.39h0c-.26,2.3,1.71,5.88,3.79,9.68,1.89,3.45,3.85,7.02,3.64,8.9-.02.2.05.4.19.54.05.05.11.09.18.13.25.12.55.07.75-.13l3.72-3.72c.11-.11.17-.24.19-.39.25-2.3-1.71-5.88-3.79-9.68-.23-.43-.47-.85-.7-1.29.39.25.77.5,1.16.76,3.57,2.34,6.94,4.54,9.26,4.29.15-.02.29-.08.39-.19l3.72-3.72c.11-.11.17-.25.19-.39h0c.26-2.33-1.95-5.7-4.28-9.26-.01-.02-.02-.04-.04-.06.02.01.04.02.06.04,3.57,2.34,6.94,4.54,9.26,4.28h0Z"/>
    </g>
  </g>
</svg>