<?xml version="1.0" encoding="UTF-8"?>
<svg id="Layer_2" data-name="Layer 2" xmlns="http://www.w3.org/2000/svg" viewBox="0 0 113.39 113.39">
  <defs>
    <style>
      .cls-1 {
        stroke-width: .3px;
      }

      .cls-1, .cls-2 {
        fill: none;
        stroke: #001b72;
        stroke-miterlimit: 10;
      }

      .cls-3 {
        fill: #001b72;
      }

      .cls-2 {
        stroke-width: 2.5px;
      }
    </style>
  </defs>
  <g id="Isolation_Mode" data-name="Isolation Mode">
    <g>
      <path class="cls-2" d="M56.69,99.21c-23.45,0-42.52-19.07-42.52-42.52S33.25,14.17,56.69,14.17s42.52,19.07,42.52,42.52-19.07,42.52-42.52,42.52h0Z"/>
      <polygon class="cls-3" points="56.69 73.22 43.15 57.35 44.58 56.13 56.69 70.33 68.8 56.13 70.23 57.35 56.69 73.22 56.69 73.22"/>
      <polygon class="cls-1" points="56.69 73.22 43.15 57.35 44.58 56.13 56.69 70.33 68.8 56.13 70.23 57.35 56.69 73.22 56.69 73.22"/>
      <polygon class="cls-3" points="57.63 71.78 55.75 71.78 55.75 45.28 57.63 45.28 57.63 71.78 57.63 71.78"/>
      <polygon class="cls-1" points="57.63 71.78 55.75 71.78 55.75 45.28 57.63 45.28 57.63 71.78 57.63 71.78"/>
      <polygon class="cls-3" points="30.45 59.84 22.22 60.09 22.17 58.37 29 58.16 28.9 54.91 30.3 54.86 30.45 59.84 30.45 59.84"/>
      <path class="cls-3" d="M27.86,47.05l-.25-.06c-1.61-.41-2.83.11-3.18,1.5-.35,1.39.47,2.43,2.08,2.84l.25.06c1.6.41,2.82-.12,3.17-1.51.35-1.39-.47-2.43-2.07-2.83h0ZM26.32,53.12l-.25-.06c-2.34-.59-3.63-2.53-3.02-4.92.61-2.4,2.66-3.47,5-2.87l.25.06c2.34.59,3.64,2.51,3.03,4.91-.61,2.4-2.66,3.48-5,2.88h0Z"/>
      <polygon class="cls-3" points="33.29 44.17 25.34 41.11 26.37 39.67 32.16 42.09 28.11 37.26 29.15 35.79 35.04 38.13 30.88 33.39 31.86 32.02 37.29 38.58 36.19 40.12 30.49 37.89 34.43 42.57 33.29 44.17 33.29 44.17"/>
      <path class="cls-3" d="M42.61,30.77l2.09-1.03-2.5-2.43.41,3.46h0ZM47.1,32.08l-1.34-1.31-2.98,1.47.22,1.86-1.56.77-.84-8.77,1.68-.83,6.44,6.01-1.61.79h0Z"/>
      <polygon class="cls-3" points="49.85 31.17 48.43 23.06 50.12 22.76 51.3 29.49 54.51 28.93 54.75 30.31 49.85 31.17 49.85 31.17"/>
      <polygon class="cls-3" points="56.33 30.28 56.92 22.07 58.64 22.19 58.14 29 61.39 29.24 61.29 30.64 56.33 30.28 56.33 30.28"/>
      <polygon class="cls-3" points="62.78 30.92 65.53 23.16 71.1 25.14 70.63 26.46 66.66 25.05 66.01 26.87 69.63 28.15 69.16 29.47 65.55 28.18 64.84 30.16 68.9 31.6 68.43 32.92 62.78 30.92 62.78 30.92"/>
      <path class="cls-3" d="M73.59,31.06l1.42,1.03c.66.48,1.34.53,1.81-.13l.08-.11c.49-.67.22-1.29-.43-1.77l-1.41-1.03-1.46,2h0ZM69.67,33.57l4.85-6.65,2.91,2.13c1.39,1.01,1.87,2.49.88,3.85l-.08.11c-.75,1.02-1.79,1.27-2.85.91l-.17,3.71-1.55-1.13.21-3.46-1.13-.83-1.72,2.36-1.36-.99h0Z"/>
      <path class="cls-3" d="M78.91,35.7l.21-.15c1.96-1.43,4.28-1.16,5.71.79,1.19,1.62.99,3.39-.21,4.57l-1.03-1.41c.6-.7.66-1.53.07-2.34-.84-1.14-2.18-1.12-3.49-.17l-.21.15c-1.31.96-1.7,2.26-.86,3.4.83,1.13,1.94,1.18,2.82.57l-1.36-1.86,1.09-.79,2.22,3.04-3.69,2.7-.75-1.03.78-.74c-.83.09-1.77-.36-2.41-1.24-1.34-1.83-.82-4.06,1.12-5.48h0Z"/>
      <polygon class="cls-3" points="80.72 45.52 88.52 42.88 90.42 48.48 89.09 48.93 87.74 44.93 85.9 45.55 87.13 49.19 85.81 49.64 84.58 46 82.59 46.67 83.97 50.75 82.65 51.2 80.72 45.52 80.72 45.52"/>
      <polygon class="cls-3" points="82.94 52.52 91.17 52.31 91.22 54.32 85.47 57.89 91.31 57.74 91.35 59.36 83.11 59.57 83.07 57.67 89.01 54 82.98 54.15 82.94 52.52 82.94 52.52"/>
      <path class="cls-3" d="M30.43,72.8l.2-.16c1.9-1.51,4.23-1.33,5.72.55,1.29,1.62,1.12,3.52-.31,4.84l-1.08-1.36c.81-.81.92-1.77.26-2.6-.87-1.09-2.21-1.03-3.47-.03l-.2.16c-1.26,1-1.61,2.3-.75,3.38.69.87,1.72.95,2.65.28l1.08,1.36c-1.61,1.12-3.53.94-4.86-.73-1.52-1.91-1.14-4.17.77-5.69h0Z"/>
      <path class="cls-3" d="M42.06,83.65l.14-.21c.9-1.39.79-2.71-.42-3.49-1.21-.78-2.45-.32-3.35,1.07l-.14.21c-.89,1.38-.78,2.71.42,3.48,1.21.78,2.45.32,3.34-1.06h0ZM36.79,80.26l.14-.21c1.3-2.03,3.55-2.64,5.62-1.3,2.08,1.34,2.44,3.62,1.13,5.65l-.14.21c-1.3,2.03-3.54,2.65-5.61,1.31-2.08-1.34-2.45-3.63-1.14-5.66h0Z"/>
      <polygon class="cls-3" points="45.06 89.45 47.01 81.45 48.96 81.92 50.9 88.4 52.28 82.73 53.86 83.12 51.91 91.12 50.06 90.67 48.07 83.97 46.65 89.84 45.06 89.45 45.06 89.45"/>
      <polygon class="cls-3" points="57.87 91.26 57.48 84.44 55.14 84.58 55.06 83.17 61.43 82.81 61.51 84.21 59.18 84.34 59.58 91.16 57.87 91.26 57.87 91.26"/>
      <polygon class="cls-3" points="65.41 90.29 62.69 82.52 68.27 80.57 68.73 81.89 64.75 83.29 65.39 85.12 69.01 83.85 69.47 85.16 65.85 86.43 66.54 88.41 70.6 86.99 71.06 88.31 65.41 90.29 65.41 90.29"/>
      <polygon class="cls-3" points="74.47 86.57 69.56 79.96 71.17 78.76 77.4 81.41 73.92 76.72 75.22 75.76 80.13 82.37 78.6 83.5 72.19 80.75 75.78 85.59 74.47 86.57 74.47 86.57"/>
      <polygon class="cls-3" points="84.08 77.83 78.57 73.78 77.18 75.67 76.05 74.84 79.83 69.7 80.96 70.53 79.58 72.41 85.09 76.45 84.08 77.83 84.08 77.83"/>
    </g>
  </g>
</svg>