<?xml version="1.0" encoding="UTF-8"?>
<svg id="Layer_2" data-name="Layer 2" xmlns="http://www.w3.org/2000/svg" viewBox="0 0 113.39 113.39">
  <defs>
    <style>
      .cls-1 {
        stroke-linejoin: round;
        stroke-width: 2px;
      }

      .cls-1, .cls-2 {
        fill: none;
        stroke: #001b72;
      }

      .cls-3 {
        fill: #001b72;
      }

      .cls-2 {
        stroke-miterlimit: 10;
        stroke-width: 2.5px;
      }
    </style>
  </defs>
  <g id="Isolation_Mode" data-name="Isolation Mode">
    <g>
      <path class="cls-2" d="M56.69,99.21c-23.45,0-42.52-19.07-42.52-42.52S33.25,14.17,56.69,14.17s42.52,19.07,42.52,42.52c0,23.45-19.07,42.52-42.52,42.52h0Z"/>
      <path class="cls-3" d="M28.28,48.77l.72-2.22-3.48.1,2.76,2.11h0ZM32.34,46.46l-1.87.05-1.02,3.15,1.48,1.14-.54,1.65-6.87-5.5.58-1.78,8.79-.43-.55,1.71h0Z"/>
      <polygon class="cls-3" points="33.41 44.19 26.53 39.67 27.48 38.23 33.18 41.99 34.97 39.27 36.15 40.04 33.41 44.19 33.41 44.19"/>
      <polygon class="cls-3" points="36.93 39.16 31.28 33.17 32.52 31.99 37.22 36.96 39.59 34.72 40.55 35.75 36.93 39.16 36.93 39.16"/>
      <polygon class="cls-3" points="43.5 33.64 40.39 26.02 42.25 25.26 47.62 29.37 45.42 23.97 46.92 23.35 50.03 30.98 48.27 31.7 42.74 27.44 45.02 33.03 43.5 33.64 43.5 33.64"/>
      <path class="cls-3" d="M53.2,27.4l2.33-.18-1.42-3.18-.9,3.36h0ZM56.88,30.28l-.76-1.71-3.31.26-.49,1.81-1.74.14,2.47-8.45,1.86-.14,3.75,7.97-1.79.14h0Z"/>
      <polygon class="cls-3" points="60.08 30.58 61.17 23.83 58.85 23.46 59.08 22.07 65.38 23.08 65.16 24.47 62.85 24.1 61.77 30.85 60.08 30.58 60.08 30.58"/>
      <path class="cls-3" d="M66.18,28.51l2.15-4.55,1.55.73-2.14,4.52c-.54,1.13-.33,1.97.75,2.48,1.07.51,1.86.15,2.4-1.01l2.13-4.51,1.55.73-2.15,4.54c-.92,1.94-2.5,2.54-4.56,1.56-2.07-.98-2.61-2.57-1.69-4.51h0Z"/>
      <path class="cls-3" d="M76.1,32.9l1.3,1.17c.6.54,1.28.66,1.82.06l.09-.1c.55-.61.35-1.26-.25-1.8l-1.3-1.17-1.66,1.85h0ZM71.94,35.01l5.5-6.13,2.69,2.41c1.28,1.15,1.61,2.67.49,3.92l-.09.1c-.84.94-1.91,1.08-2.92.62l-.54,3.68-1.43-1.29.56-3.42-1.04-.94-1.95,2.18-1.25-1.12h0Z"/>
      <path class="cls-3" d="M81.31,40.42l1.21,1.99,2.2-2.7-3.41.71h0ZM80.4,45l1.18-1.45-1.72-2.84-1.83.38-.9-1.49,8.66-1.6.97,1.6-5.42,6.94-.93-1.54h0Z"/>
      <polygon class="cls-3" points="81.41 47.28 89.32 45.03 89.79 46.68 83.22 48.55 84.11 51.68 82.76 52.06 81.41 47.28 81.41 47.28"/>
      <polygon class="cls-3" points="22.54 62.06 30.64 60.59 30.94 62.28 22.84 63.75 22.54 62.06 22.54 62.06"/>
      <polygon class="cls-3" points="23.59 67.27 31.14 63.97 31.94 65.81 27.96 71.29 33.31 68.95 33.96 70.44 26.41 73.73 25.65 71.99 29.77 66.36 24.24 68.77 23.59 67.27 23.59 67.27"/>
      <path class="cls-3" d="M31.28,74.14l.19-.17c1.81-1.61,4.15-1.56,5.75.24,1.33,1.5,1.31,3.27.23,4.56l-1.16-1.3c.53-.75.51-1.59-.15-2.33-.94-1.06-2.28-.91-3.48.17l-.19.17c-1.21,1.08-1.47,2.41-.53,3.47.93,1.05,2.04.99,2.86.3l-1.53-1.72,1-.89,2.5,2.81-3.42,3.04-.85-.95.71-.81c-.82.17-1.8-.19-2.52-1-1.5-1.69-1.21-3.96.6-5.56h0Z"/>
      <path class="cls-3" d="M39.94,81.91l1.5.9c.7.42,1.38.41,1.79-.29l.07-.12c.42-.71.1-1.3-.59-1.72l-1.5-.9-1.27,2.13h0ZM36.27,84.77l4.23-7.06,3.09,1.85c1.47.88,2.09,2.31,1.23,3.75l-.07.12c-.65,1.08-1.66,1.42-2.75,1.17l.17,3.71-1.65-.99-.1-3.46-1.2-.72-1.5,2.51-1.44-.86h0Z"/>
      <polygon class="cls-3" points="45.16 89.43 47.24 81.45 52.97 82.95 52.62 84.31 48.53 83.24 48.04 85.12 51.75 86.09 51.4 87.43 47.69 86.46 47.16 88.5 51.32 89.58 50.97 90.94 45.16 89.43 45.16 89.43"/>
      <path class="cls-3" d="M56.14,89.9l1.24-.05c1.54-.06,2.49-.84,2.42-2.67v-.25c-.08-1.83-1.08-2.54-2.62-2.48l-1.24.05.2,5.4h0ZM54.5,91.38l-.3-8.23,3.05-.11c2.47-.09,4.23,1.26,4.32,3.84v.25c.1,2.56-1.55,4.05-4.02,4.14l-3.05.11h0Z"/>
      <polygon class="cls-3" points="64.92 90.3 62.77 82.35 64.42 81.9 66.58 89.85 64.92 90.3 64.92 90.3"/>
      <polygon class="cls-3" points="69.91 88.79 66.14 81.47 71.4 78.76 72.05 80.01 68.29 81.94 69.18 83.66 72.59 81.9 73.23 83.14 69.81 84.9 70.78 86.77 74.6 84.8 75.24 86.04 69.91 88.79 69.91 88.79"/>
      <polygon class="cls-3" points="78.16 84.03 72.44 78.11 73.89 76.71 80.4 78.53 76.35 74.34 77.52 73.21 83.24 79.13 81.87 80.46 75.15 78.56 79.34 82.9 78.16 84.03 78.16 84.03"/>
      <polygon class="cls-3" points="86.43 74.36 80.48 71.02 79.33 73.06 78.11 72.38 81.23 66.81 82.45 67.5 81.31 69.53 87.27 72.88 86.43 74.36 86.43 74.36"/>
      <path class="cls-3" d="M86.78,67.88l.42-1.65c.98.13,1.61-.43,1.86-1.44.24-.93.04-1.58-.61-1.75h-.04c-.6-.16-.99.19-1.67,1.67-.85,1.85-1.79,2.42-3.04,2.1l-.07-.02c-1.41-.36-2.02-1.8-1.56-3.6.45-1.79,1.66-2.81,3.35-2.53l-.42,1.65c-.84-.12-1.39.34-1.62,1.24-.23.9.07,1.44.63,1.58h.02c.51.13.88-.02,1.55-1.53.81-1.83,1.74-2.61,3.08-2.27l.07.02c1.48.38,2.13,1.92,1.66,3.81-.52,2.04-1.85,3.05-3.6,2.71h0Z"/>
      <path class="cls-1" d="M41.98,47.8c1.92,2.17,3.08,5.02,3.08,8.14s-1.16,5.97-3.08,8.14M76.18,55.94c0-2.09.55-4.06,1.5-5.77.25-.44-.2-.95-.66-.74-3.08,1.39-5.67,3.67-7.46,6.5,1.79,2.84,4.38,5.11,7.46,6.5.46.21.91-.3.66-.74-.96-1.71-1.5-3.67-1.5-5.77h0ZM51.18,45.77c2.68,0,5.25.49,7.62,1.37-.09-.62-.14-1.25-.14-1.89,0-1.57.28-3.08.8-4.47-.37-.03-.74-.05-1.12-.05-4.27,0-8.06,2.08-10.4,5.28,1.06-.16,2.14-.24,3.25-.24h0ZM51.18,66.11c2.68,0,5.25-.49,7.62-1.37-.09.62-.14,1.25-.14,1.89,0,1.57.28,3.08.8,4.47-.37.03-.74.05-1.12.05-4.27,0-8.06-2.08-10.4-5.28,1.06.16,2.14.24,3.25.24h0ZM51.18,45.77c-7.76,0-14.56,4.06-18.41,10.17,3.85,6.11,10.66,10.17,18.41,10.17,7.76,0,14.56-4.06,18.41-10.17-3.85-6.11-10.66-10.17-18.41-10.17h0ZM39.8,55.93c0,.4-.33.73-.73.73s-.73-.33-.73-.73.33-.73.73-.73.73.33.73.73h0Z"/>
    </g>
  </g>
</svg>