<?xml version="1.0" encoding="UTF-8"?>
<svg id="Layer_2" data-name="Layer 2" xmlns="http://www.w3.org/2000/svg" viewBox="0 0 113.39 113.39">
  <defs>
    <style>
      .cls-1 {
        stroke-linejoin: round;
        stroke-width: 2px;
      }

      .cls-1, .cls-2 {
        fill: none;
        stroke: #001b72;
      }

      .cls-3 {
        fill: #001b72;
      }

      .cls-2 {
        stroke-miterlimit: 10;
        stroke-width: 2.5px;
      }
    </style>
  </defs>
  <g id="Isolation_Mode" data-name="Isolation Mode">
    <g>
      <path class="cls-2" d="M56.69,99.21c-23.45,0-42.52-19.07-42.52-42.52S33.25,14.17,56.69,14.17s42.52,19.07,42.52,42.52-19.07,42.52-42.52,42.52h0Z"/>
      <path class="cls-3" d="M34.67,35.32l1.28-1.2c.59-.56.77-1.21.21-1.81l-.09-.1c-.56-.6-1.22-.46-1.82.1l-1.28,1.2,1.7,1.81h0ZM36.41,39.64l-5.63-6.01,2.63-2.47c1.25-1.17,2.8-1.38,3.95-.15l.1.1c.86.92.91,1.99.36,2.97l3.62.86-1.41,1.32-3.36-.86-1.02.96,2,2.13-1.23,1.15h0Z"/>
      <polygon class="cls-3" points="43.16 34.1 39.15 26.91 40.65 26.08 44.66 33.27 43.16 34.1 43.16 34.1"/>
      <path class="cls-3" d="M45.5,28.28l-.06-.25c-.6-2.35.51-4.4,2.83-5,2.01-.52,3.67.41,4.29,2.26l-1.68.43c-.41-1.07-1.24-1.56-2.27-1.3-1.35.35-1.84,1.6-1.44,3.16l.06.25c.4,1.56,1.44,2.41,2.78,2.06,1.08-.28,1.56-1.18,1.33-2.31l1.68-.43c.36,1.93-.58,3.61-2.65,4.14-2.36.61-4.28-.66-4.88-3.02h0Z"/>
      <polygon class="cls-3" points="55.52 30.17 56.24 21.97 57.95 22.12 57.66 25.4 61.24 25.71 61.53 22.43 63.24 22.58 62.52 30.78 60.81 30.63 61.12 27.12 57.54 26.81 57.23 30.32 55.52 30.17 55.52 30.17"/>
      <polygon class="cls-3" points="68.1 32.95 71.91 25.65 73.44 26.44 69.62 33.74 68.1 32.95 68.1 32.95"/>
      <polygon class="cls-3" points="71.78 34.83 77.31 28.73 78.8 30.08 77.41 36.7 81.33 32.38 82.54 33.47 77 39.57 75.59 38.29 77.04 31.46 72.99 35.93 71.78 34.83 71.78 34.83"/>
      <path class="cls-3" d="M33.27,76.48l.21-.15c1.34-.97,1.73-2.24.88-3.41-.85-1.16-2.17-1.19-3.51-.21l-.21.15c-1.33.97-1.71,2.25-.87,3.4.85,1.16,2.17,1.19,3.5.22h0ZM29.59,71.41l.21-.15c1.95-1.42,4.26-1.18,5.72.82,1.45,2,.96,4.26-.99,5.68l-.21.15c-1.95,1.42-4.26,1.19-5.71-.81-1.45-2-.97-4.27.98-5.69h0Z"/>
      <polygon class="cls-3" points="34.47 83.54 38.88 76.59 40.96 77.9 39.4 84.14 44.36 80.06 46.34 81.31 41.93 88.27 40.56 87.4 43.92 82.09 38.79 86.28 37.65 85.56 39.25 79.11 35.87 84.43 34.47 83.54 34.47 83.54"/>
      <polygon class="cls-3" points="46.49 89.87 48.25 81.82 54.03 83.08 53.73 84.45 49.6 83.55 49.19 85.44 52.94 86.26 52.65 87.62 48.89 86.8 48.45 88.86 52.65 89.77 52.35 91.14 46.49 89.87 46.49 89.87"/>
      <path class="cls-3" d="M55.88,87.51l-.03-.25c-.24-2.41,1.18-4.28,3.58-4.51,2-.2,3.42.87,3.83,2.51l-1.73.17c-.29-.87-.98-1.35-1.98-1.25-1.41.14-2.08,1.31-1.92,2.92l.02.25c.16,1.62,1.08,2.61,2.49,2.47,1.4-.14,2.01-1.07,1.92-2.14l-2.3.22-.13-1.34,3.74-.37.45,4.55-1.27.12-.24-1.05c-.35.76-1.21,1.34-2.3,1.45-2.25.22-3.91-1.36-4.15-3.76h0Z"/>
      <path class="cls-3" d="M69.12,85.59l2.1-1-2.47-2.46.37,3.46h0ZM73.58,86.96l-1.32-1.32-2.99,1.43.19,1.86-1.57.75-.73-8.77,1.69-.8,6.36,6.09-1.62.77h0Z"/>
      <polygon class="cls-3" points="75.74 81.12 74.86 80.12 77.58 77.72 78.46 78.72 75.74 81.12 75.74 81.12"/>
      <path class="cls-3" d="M81.38,77.36l.96-1.41c.71.42,1.38.27,1.88-.46.48-.7.41-1.38-.16-1.77l-.11-.07c-.58-.4-1.22-.2-1.7.49l-.46.68-1.06-.73.46-.67c.41-.59.39-1.21-.13-1.56l-.11-.07c-.47-.32-1.07-.18-1.48.42-.47.69-.36,1.34.28,1.83l-.92,1.35c-1.28-.96-1.43-2.58-.49-3.95.9-1.32,2.32-1.83,3.43-1.07l.09.06c.67.46.92,1.26.72,2.04.69-.6,1.65-.77,2.48-.2l.11.07c1.2.82,1.26,2.41.23,3.92-1.07,1.57-2.61,2-4.01,1.1h0Z"/>
      <path class="cls-1" d="M41.98,47.8c1.92,2.17,3.08,5.02,3.08,8.14s-1.16,5.97-3.08,8.14M76.18,55.94c0-2.09.55-4.06,1.5-5.77.25-.44-.2-.95-.66-.74-3.08,1.39-5.67,3.67-7.46,6.5,1.79,2.84,4.38,5.11,7.46,6.5.46.21.91-.3.66-.74-.96-1.71-1.5-3.67-1.5-5.77h0ZM51.18,45.77c2.68,0,5.25.49,7.62,1.37-.09-.62-.14-1.25-.14-1.89,0-1.57.28-3.08.8-4.47-.37-.03-.74-.05-1.12-.05-4.27,0-8.06,2.08-10.4,5.28,1.06-.16,2.14-.24,3.25-.24h0ZM51.18,66.11c2.68,0,5.25-.49,7.62-1.37-.09.62-.14,1.25-.14,1.89,0,1.57.28,3.08.8,4.47-.37.03-.74.05-1.12.05-4.27,0-8.06-2.08-10.4-5.28,1.06.16,2.14.24,3.25.24h0ZM51.18,45.77c-7.76,0-14.56,4.06-18.41,10.17,3.85,6.11,10.66,10.17,18.41,10.17,7.76,0,14.56-4.06,18.41-10.17-3.85-6.11-10.66-10.17-18.41-10.17h0ZM39.8,55.93c0,.4-.33.73-.73.73s-.73-.33-.73-.73.33-.73.73-.73.73.33.73.73h0Z"/>
    </g>
  </g>
</svg>