<?xml version="1.0" encoding="UTF-8"?>
<svg id="Layer_2" data-name="Layer 2" xmlns="http://www.w3.org/2000/svg" viewBox="0 0 90.04 90.04">
  <defs>
    <style>
      .cls-1 {
        fill-rule: evenodd;
      }

      .cls-1, .cls-2 {
        fill: #001b72;
      }

      .cls-3 {
        fill: none;
        stroke: #001b72;
        stroke-miterlimit: 10;
        stroke-width: 2.5px;
      }
    </style>
  </defs>
  <g id="Isolation_Mode" data-name="Isolation Mode">
    <g>
      <circle class="cls-3" cx="45.02" cy="45.02" r="43.76"/>
      <path class="cls-2" d="M15.9,53.2c-.1.15-.25.25-.45.29l-5.37,1.07c-.24.05-.43.02-.58-.08-.14-.1-.24-.27-.28-.49l-.42-2.13c-.09-.47-.1-.91,0-1.3.09-.39.27-.73.55-1s.63-.45,1.08-.54l.11-.02c.45-.09.86-.06,1.21.08.35.14.65.38.88.71.24.33.4.73.5,1.21l.29,1.48,1.76-.35c.2-.04.38,0,.53.09.15.1.25.26.29.46.04.2,0,.38-.09.53ZM11.59,50.58c-.2-.17-.46-.22-.78-.16l-.11.02c-.32.06-.54.21-.66.44-.12.23-.15.52-.08.87l.27,1.34,2.04-.4-.27-1.34c-.07-.35-.2-.6-.41-.77Z"/>
      <path class="cls-2" d="M14.79,46c-.13.12-.3.18-.51.17l-5.47-.25c-.24-.01-.42-.08-.54-.22-.12-.13-.17-.32-.16-.55l.1-2.27c.02-.48.12-.9.31-1.26.18-.36.44-.64.77-.84.33-.2.72-.29,1.18-.26h.12c.59.03,1.06.23,1.4.58.34.36.55.84.61,1.44l-.6-.34,2.18-1.26c.13-.09.28-.13.43-.13.17,0,.32.08.43.21.11.13.17.3.16.49-.01.26-.15.46-.41.6l-2.17,1.23-.06,1.34,1.8.08c.2,0,.37.08.49.22s.18.31.17.52c0,.21-.08.37-.22.49ZM11.25,42.33c-.15-.21-.39-.33-.72-.34h-.12c-.33-.02-.58.07-.75.27-.17.2-.27.47-.28.83l-.07,1.46,2.08.1.07-1.46c.02-.35-.05-.64-.21-.85Z"/>
      <path class="cls-2" d="M15.59,37.43c-.43.39-.94.63-1.51.73-.57.1-1.18.05-1.81-.16l-.2-.06c-.64-.2-1.16-.51-1.57-.93s-.68-.91-.81-1.48c-.12-.57-.08-1.17.12-1.81.21-.64.52-1.16.96-1.55s.94-.64,1.51-.74c.58-.1,1.18-.05,1.82.15l.2.06c.64.2,1.16.51,1.57.93.41.42.68.91.8,1.48.13.57.09,1.18-.12,1.82s-.53,1.16-.96,1.55ZM15.46,34.47c-.09-.32-.27-.6-.55-.84-.28-.24-.63-.43-1.06-.57l-.2-.07c-.43-.14-.83-.19-1.2-.15-.37.04-.68.16-.94.37-.26.21-.45.5-.57.88-.12.38-.14.73-.05,1.05.09.32.27.6.55.84.28.24.64.43,1.08.57l.2.06c.43.14.83.19,1.2.15.37-.04.68-.16.94-.37.26-.21.45-.5.57-.87.12-.38.14-.73.05-1.04Z"/>
      <path class="cls-2" d="M18.31,30.61c-.18.04-.36,0-.56-.14l-4.48-2.96c-.2-.14-.32-.29-.35-.46s.02-.36.14-.55l.98-1.49c.38-.58.82-1.02,1.33-1.31.5-.29,1.04-.43,1.62-.4.58.03,1.16.24,1.74.62l.18.12c.58.39,1,.84,1.26,1.35s.34,1.06.27,1.64-.3,1.16-.68,1.73l-.98,1.49c-.13.19-.28.31-.46.34ZM19.15,26.63c-.09-.49-.44-.94-1.06-1.35l-.18-.12c-.61-.4-1.16-.55-1.65-.44-.49.11-.92.44-1.28.99l-.57.86,3.76,2.48.57-.86c.36-.55.5-1.07.41-1.57Z"/>
      <path class="cls-2" d="M23.15,23.48c-.68-.04-1.31-.4-1.91-1.07l-2.34-2.65c-.14-.16-.21-.34-.2-.52.01-.18.1-.35.26-.49.16-.14.33-.21.51-.2.18,0,.35.1.49.26l2.32,2.63c.35.39.7.62,1.05.67.35.05.71-.09,1.08-.42.37-.32.55-.66.55-1.02s-.18-.74-.53-1.14l-2.32-2.63c-.14-.16-.21-.33-.19-.51s.1-.34.26-.49c.16-.14.33-.2.51-.19.18.01.34.1.48.26l2.34,2.65c.59.67.87,1.35.83,2.03-.04.68-.42,1.33-1.12,1.95-.71.62-1.4.92-2.08.88Z"/>
      <path class="cls-2" d="M30.16,18.53c-.57-.04-1.1-.23-1.57-.57s-.86-.82-1.16-1.42l-.09-.19c-.3-.6-.44-1.19-.43-1.78,0-.59.17-1.12.49-1.61.31-.48.77-.87,1.35-1.16.59-.3,1.15-.41,1.68-.36s.97.23,1.34.51c.09.07.17.14.22.2.05.06.1.13.14.21.07.15.09.3.05.45-.04.15-.15.27-.32.35-.14.07-.27.09-.38.07-.12-.02-.27-.09-.45-.2-.29-.19-.57-.29-.86-.33-.29-.03-.58.03-.89.18-.33.17-.58.39-.74.68-.16.29-.23.61-.21.97.02.36.14.74.34,1.14l.1.19c.2.4.44.71.71.94.28.23.58.38.91.42.33.05.66-.01.99-.18.32-.16.56-.37.71-.63.15-.26.23-.57.25-.95,0-.25.03-.43.08-.54.05-.11.15-.21.29-.28.16-.08.31-.09.45-.04.14.06.25.16.32.31.04.08.07.16.08.22s.03.16.05.27c.04.51-.08,1.01-.36,1.51-.28.49-.72.89-1.33,1.2-.6.3-1.18.43-1.76.39Z"/>
      <path class="cls-2" d="M37.84,15.72c-.15-.1-.25-.25-.3-.46l-1.11-4.91-1.39.31c-.17.04-.32.02-.45-.06-.13-.08-.21-.2-.25-.37-.04-.17-.02-.33.07-.45.08-.13.21-.21.38-.25l4.17-.94c.17-.04.32-.02.45.06.13.08.21.21.25.38.04.17.02.32-.07.44-.08.13-.21.21-.38.25l-1.39.31,1.11,4.91c.05.21.02.39-.08.54-.1.15-.25.26-.46.3-.21.05-.4.02-.55-.07Z"/>
      <path class="cls-2" d="M47.39,14.72c-.46-.36-.79-.81-.98-1.36-.2-.55-.25-1.15-.16-1.81l.03-.21c.09-.66.3-1.23.64-1.71s.78-.83,1.31-1.05c.54-.22,1.14-.29,1.81-.19.67.09,1.23.32,1.69.67.46.36.79.81.99,1.36.2.55.25,1.16.16,1.82l-.03.21c-.09.66-.31,1.23-.65,1.7-.34.47-.78.82-1.32,1.05-.54.22-1.14.29-1.81.2s-1.23-.32-1.69-.68ZM50.28,14.08c.3-.14.54-.37.74-.69.19-.31.32-.7.38-1.15l.03-.21c.06-.45.04-.86-.06-1.21-.1-.36-.28-.64-.52-.86-.25-.22-.57-.35-.96-.41-.39-.05-.74,0-1.04.13s-.54.37-.73.69c-.19.31-.31.7-.38,1.16l-.03.21c-.06.45-.04.85.06,1.21.1.35.27.64.52.86.25.22.57.35.95.41.39.05.74,0,1.04-.13Z"/>
      <path class="cls-2" d="M54.62,16.37c-.07-.17-.06-.35.02-.54l2.07-5.06c.09-.22.22-.37.39-.43.17-.06.35-.05.57.04l3.17,1.3c.16.06.27.17.33.31.06.14.05.29-.01.45-.07.16-.17.27-.31.33-.14.06-.29.05-.45-.01l-2.54-1.04-.66,1.62,2.24.91c.16.07.27.17.33.31.06.14.05.29-.02.46-.07.16-.17.27-.3.33-.14.06-.29.05-.45-.01l-2.23-.91-.8,1.96c-.08.2-.21.33-.38.4s-.35.06-.55-.02c-.2-.08-.33-.2-.4-.37Z"/>
      <path class="cls-2" d="M26.36,76.88c-.06-.16-.04-.34.05-.52l2.31-4.72c.14-.29.33-.49.56-.58.23-.09.48-.07.76.07.21.1.37.24.47.42.1.18.16.41.18.7l.38,4.81,1.85-3.78c.09-.19.22-.3.38-.36s.34-.04.53.05c.18.09.29.21.35.38.06.16.04.34-.05.52l-2.32,4.74c-.14.29-.33.48-.55.57-.23.09-.48.07-.75-.07-.19-.09-.33-.23-.42-.4s-.15-.4-.17-.68l-.37-5-1.92,3.92c-.09.18-.22.3-.38.36-.16.06-.34.04-.53-.06-.18-.09-.3-.22-.36-.38Z"/>
      <path class="cls-2" d="M35.04,80.44c-.1-.15-.12-.34-.07-.57l1.14-5.25c.05-.24.15-.4.3-.49.15-.09.34-.11.57-.06l3.57.78c.16.04.29.12.37.25.08.13.11.28.07.45-.04.17-.12.29-.25.37-.13.08-.28.1-.44.07l-2.91-.64-.34,1.57,2.61.57c.16.04.29.12.37.24.08.13.11.27.07.44-.04.17-.12.29-.24.37-.13.08-.27.1-.44.07l-2.61-.57-.37,1.68,2.97.65c.17.04.3.12.39.25s.11.28.07.45c-.04.17-.12.3-.25.38-.13.09-.28.11-.46.07l-3.63-.79c-.23-.05-.39-.15-.49-.3Z"/>
      <path class="cls-2" d="M44.68,81.93c-.17-.12-.31-.32-.4-.6l-1.75-5.07c-.04-.13-.06-.24-.07-.34-.01-.18.04-.33.16-.46.12-.13.29-.2.52-.22.18-.01.33.03.45.12.12.09.2.21.25.37l1.43,4.5.88-4.38c.05-.27.15-.47.28-.62.13-.14.33-.22.6-.24.25-.02.46.04.61.16.15.12.27.31.36.58l1.42,4.26.84-4.69c.03-.16.1-.29.2-.38s.23-.16.4-.17c.21-.01.38.03.52.14.13.11.2.25.21.42,0,.1,0,.21-.03.34l-1.11,5.31c-.06.28-.16.49-.31.63-.15.14-.35.21-.62.23-.27.02-.48-.03-.65-.15-.16-.12-.29-.31-.39-.59l-1.37-4.07-.83,4.21c-.06.29-.16.5-.32.64-.15.14-.36.22-.63.24-.27.02-.5-.03-.67-.15Z"/>
      <path class="cls-2" d="M58.23,79.42c-.16-.05-.29-.17-.37-.35-.08-.17-.1-.35-.07-.54l.95-5.4-2.27,1.05c-.16.07-.31.08-.45.03-.14-.05-.25-.16-.32-.31-.08-.16-.08-.32-.03-.46s.16-.25.32-.32l3.21-1.48c.21-.1.4-.12.56-.07.16.05.29.17.37.35.08.16.09.35.06.54l-.92,5.37,2.49-1.15c.16-.08.32-.09.46-.03.14.05.25.16.33.31.07.16.08.31.03.45-.05.14-.16.26-.32.33l-3.45,1.59c-.21.1-.4.12-.56.07Z"/>
      <path class="cls-2" d="M65.42,75.65c-.18-.03-.34-.13-.48-.31l-3.24-4.28c-.15-.19-.21-.38-.18-.55.03-.17.14-.33.32-.47l2.92-2.21c.13-.1.28-.14.43-.12.15.02.28.1.39.24.1.14.15.28.12.43-.02.15-.1.28-.23.38l-2.38,1.8.97,1.28,2.13-1.61c.13-.1.27-.14.42-.12.15.02.28.1.38.24.1.14.15.28.13.43-.02.15-.1.27-.24.38l-2.13,1.61,1.04,1.37,2.42-1.83c.14-.11.29-.15.44-.13s.28.1.39.24c.11.14.15.29.13.44s-.1.29-.24.4l-2.96,2.24c-.18.14-.37.2-.55.17Z"/>
      <path class="cls-2" d="M71.62,70.66c-.17.02-.32-.03-.45-.13-.08-.07-.16-.16-.23-.28l-2.69-4.91c-.15-.26-.22-.5-.22-.7s.09-.42.27-.63c.17-.21.36-.33.56-.38.2-.04.45-.02.73.08l5.34,1.67c.13.05.23.1.32.17.13.11.21.25.22.42.01.17-.04.33-.17.49-.1.12-.21.2-.33.23-.12.04-.27.02-.43-.03l-5.76-1.91.31-.38,3.03,5.24c.09.15.13.28.12.41,0,.13-.06.25-.17.38-.13.16-.28.25-.45.27ZM70.54,68.05l2.1-2.56,1.13.37-2.64,3.22-.59-1.03Z"/>
      <path class="cls-2" d="M77.11,63c-.17.06-.36.04-.57-.07l-4.88-2.44c-.2-.1-.32-.23-.38-.41-.06-.17-.04-.35.06-.54.1-.2.23-.32.41-.38.17-.06.36-.04.55.06l4.47,2.24.98-1.95c.08-.16.19-.26.34-.31s.29-.03.45.05c.16.08.27.19.32.34s.03.29-.05.46l-1.29,2.57c-.1.21-.24.34-.41.4Z"/>
      <path class="cls-2" d="M80.12,56.56c-.14.09-.3.12-.47.08-.11-.03-.22-.08-.33-.15l-4.56-3.25c-.25-.17-.42-.35-.5-.54-.09-.19-.1-.41-.04-.68.06-.26.18-.46.34-.58.16-.13.39-.21.69-.25l5.53-.82c.14-.01.26,0,.36.02.17.04.3.13.38.28.09.15.11.32.06.52-.04.15-.1.27-.2.35-.1.08-.23.14-.4.16l-6.02.79.11-.48,5.02,3.4c.14.09.24.2.29.32.05.12.05.25.02.41-.05.2-.14.34-.29.44ZM78.01,54.68l.77-3.22,1.18-.16-.97,4.05-.98-.67Z"/>
      <path class="cls-2" d="M81.87,47.18c-.12.12-.28.19-.49.19l-5.25.08c-.33,0-.58-.08-.77-.24-.19-.16-.28-.4-.29-.71,0-.24.05-.44.16-.61.11-.17.29-.33.54-.48l4.12-2.52-4.2.06c-.21,0-.37-.06-.49-.18-.12-.12-.19-.29-.19-.49,0-.2.06-.36.18-.48.12-.12.28-.19.49-.19l5.27-.08c.32,0,.57.07.75.23.18.16.28.4.28.7,0,.21-.05.4-.17.56-.11.16-.29.31-.53.46l-4.29,2.6,4.37-.07c.21,0,.37.06.49.17.12.12.19.29.19.5,0,.2-.06.37-.17.49Z"/>
      <path class="cls-2" d="M81.13,37.75c-.09.16-.25.27-.47.33l-5.17,1.44c-.23.07-.43.05-.58-.04-.15-.09-.26-.25-.32-.47l-.48-1.71c-.19-.67-.22-1.29-.12-1.86.11-.57.36-1.07.76-1.48.4-.41.94-.72,1.61-.9l.2-.06c.67-.19,1.29-.21,1.85-.06.56.15,1.03.44,1.42.88.39.43.67.99.86,1.65l.48,1.72c.06.22.05.41-.04.57ZM78.69,34.51c-.43-.26-1-.29-1.71-.09l-.2.06c-.71.2-1.18.51-1.42.96-.24.44-.27.98-.09,1.62l.28.99,4.34-1.21-.28-.99c-.18-.64-.48-1.08-.91-1.34Z"/>
      <path class="cls-1" d="M72.95,22.34c-.84,0-1.83.7-2.4,1.17.21-.36.41-.72.61-1.09.85-.44,1.6-1.28,1.49-1.45-.48.12-.91.66-1.25.98.06-.12.12-.25.19-.38l.24-.41c.26-.33.76-1.34.5-1.6-.42.21-.66.86-.73,1.54l-.16.3c-.1.19-.21.38-.32.56,0,0,0-.01,0-.02.08-.58.06-1.2-.07-1.42-.31.3-.24,1.02-.14,1.82-.2.34-.42.67-.63,1.01-.01-.44.22-2.07-.26-2.25-.31.78-.19,1.83-.09,2.78-.24.35-.48.7-.73,1.05,0-.93.32-2.47-.17-2.94-.78,1.16-.27,2.74-.29,3.57-.28.36-.56.72-.85,1.07.01-1.27.47-2.08.04-3.27-1.02.68-.6,3.05-.61,3.95-.29.34-.59.67-.89,1-.06-.95.47-3.24-.12-4-.94.92-.71,3.6-.55,4.71-.38.39-.76.78-1.15,1.15.19-1.36.38-3.43.14-4.45-1.34.59-.86,4.02-.81,5.09-.39.36-.79.72-1.2,1.07.01-.14.03-.34.07-.66.15-1.37.36-3.02-.12-4.35-1.25.88-.7,4.38-.64,5.59-.45.37-.9.74-1.36,1.1.07-1.91.28-3.27.1-5.4-1.7,1.04-.92,4.63-.91,6.01-.49.37-.98.73-1.48,1.08.09-2.31.28-4.28-.03-6.37-1.88,1.33-1.1,4.91-.84,6.97-.66.45-1.33.89-2.01,1.32.3-2.08.52-4.33.18-6.92-1.81,1.15-1.27,5.04-1.08,7.48-.29.18-.57.35-.86.52-.4.24-.81.47-1.21.7.5-2.17.52-4.94.13-7.75-1.91,1.61-1.28,5.96-1.2,8.33-.67.35-1.33.69-2,1.02.43-2.5.3-6.24.15-8.71-2.05,2.14-1.67,5.71-1.49,9.36-.59.29-1.19.58-1.78.88.29-2.79.1-5.97.12-8.97-2.2,1.8-1.94,5.53-1.62,9.74-.42.22-.84.45-1.25.68-.28.16-.56.32-.84.48.84-2.51.22-6.16.25-9.59-2.31,1.59-2.25,6.28-1.85,10.54-.7.42-1.38.85-2.05,1.29.69-2.73.17-7.23-.33-10.44-2.46,2.49-2.26,7.14-1.29,11.53-.84.58-1.66,1.17-2.46,1.77.04-.13.08-.27.12-.43,1.01-2.76-.03-7.52-.13-11.53-2.84,2.27-2.39,7.78-1.71,13.3-.59.48-1.18.96-1.74,1.45,0-.19.02-.41.05-.62.87-3.51-.95-8.01-1.08-12.25-3.29,1.8-2.28,9.87-.94,14.62-.9.84-1.78,1.69-2.62,2.56,0-.07.02-.16.05-.27.88-5.08-.98-10.45-2.03-14.77-2.98,3.62-1.63,11.79.05,17.11-3.22,3.58-6.12,7.46-8.97,11.71l4.2-.46c1.79-3.85,4.07-7.39,6.72-10.64,0,0,.02,0,.03.01,4.32,2.07,9.74,5.29,16.09,3.13-4.29-2.07-8.77-4.94-14.42-5.02-.03,0-.06,0-.09,0,.84-.94,1.72-1.86,2.63-2.75,3.74,2.56,8.51,5.97,14.29,3.93-4.54-1.36-7.24-4.83-12.86-5.03-.1,0-.19,0-.26,0,.62-.57,1.25-1.14,1.89-1.69,1.17-.3,2.49.68,3.64,1.29,2.68,1.44,5.89,3.55,9.77,2.4-3.4-2.04-7.18-4.74-11.71-5.1.9-.72,1.83-1.42,2.77-2.1.09.05.18.1.27.15,3.12,2.01,6.21,4.81,11.16,3.97-1.9-1.33-3.65-2.12-5.33-3.18-1.52-.95-3.2-1.7-4.36-2.15.66-.45,1.33-.88,2-1.3,2.6,1.99,5.65,5.1,9.76,4.08-2.89-1.41-4.93-3.87-8.22-4.8-.09-.02-.16-.05-.24-.07.1-.06.21-.13.31-.19.6-.36,1.21-.7,1.84-1.03,2.46,1.77,4.7,3.91,8.57,3.93-1.53-1.86-4.61-3.37-7.06-4.71.45-.23.9-.45,1.36-.68,0,0,0,0,0,.01,1.53.09,2.93,1.69,4.56,2.49,1.35.66,2.39.85,3.86,1.08-2.24-3-5.49-4.05-6.83-4.37.66-.34,1.31-.68,1.95-1.03,2.37,1.12,4.9,3.72,7.93,2.86-1.85-1.34-3.82-2.77-6.77-3.52.54-.32,1.07-.64,1.6-.97,2.3-.06,4.76,3.38,7.74,2.08-1.85-1.1-3.26-2.36-5.75-2.88-.27-.06-.44-.09-.56-.12.47-.31.93-.62,1.39-.94,1.89.16,4.68,2.7,7.32,1.49-1.8-.91-3.66-2.13-6.18-2.31.48-.35.96-.72,1.43-1.09,2,0,4.58,2.37,6.52,1.02-1.41-.83-3.56-1.57-5.76-1.63.52-.42,1.03-.86,1.53-1.3.09.03.22.05.39.07,1.51.11,3.65,1.82,5.3.52-1.06-.57-3.04-1.13-4.83-1.36,0,0,0,0-.02,0,.39-.37.78-.74,1.16-1.12,1.48-.06,3.9,1.28,5.31.13-.99-.76-3.9-.81-4.69-.77.33-.35.65-.7.97-1.06,1.43-.08,4.03.4,4.86-.63-.95-.32-3-.24-4.26-.07.31-.37.62-.75.92-1.14,1.18-.11,3.48-.07,4.06-.9-.86-.43-2.76.22-3.56.24.21-.28.41-.57.61-.86,1.06-.46,3.17-.86,3.63-1.8-1.13-.05-2.48.84-3.15,1.09.24-.37.48-.74.71-1.12.86-.48,2.34-.85,2.73-1.72Z"/>
    </g>
  </g>
</svg>