<?xml version="1.0" encoding="UTF-8"?>
<svg id="Layer_2" data-name="Layer 2" xmlns="http://www.w3.org/2000/svg" viewBox="0 0 87.54 87.54">
  <defs>
    <style>
      .cls-1 {
        stroke-width: .25px;
      }

      .cls-1, .cls-2 {
        fill: #001b72;
      }

      .cls-1, .cls-3 {
        stroke: #001b72;
        stroke-miterlimit: 10;
      }

      .cls-3 {
        fill: none;
        stroke-width: 2.5px;
      }
    </style>
  </defs>
  <g id="Isolation_Mode" data-name="Isolation Mode">
    <g>
      <g>
        <path class="cls-3" d="M43.77,86.29c-23.45,0-42.52-19.07-42.52-42.52S20.32,1.25,43.77,1.25s42.52,19.07,42.52,42.52-19.07,42.52-42.52,42.52Z"/>
        <g>
          <path class="cls-2" d="M17.22,43.72l-8.16-1.09.23-1.7,3.26.44.48-3.56-3.26-.44.23-1.7,8.16,1.09-.23,1.7-3.49-.47-.48,3.56,3.49.47-.23,1.7Z"/>
          <path class="cls-2" d="M18.93,35.02l-7.67-2.99.62-1.6,7.67,2.99-.62,1.6Z"/>
          <path class="cls-2" d="M16.73,29.54l-.21-.15c-1.98-1.39-2.47-3.68-1.09-5.65,1.15-1.64,2.88-2.03,4.39-1.27l-1,1.42c-.85-.34-1.66-.13-2.24.68-.81,1.16-.36,2.43.96,3.35l.21.15c1.33.93,2.68.88,3.5-.28.81-1.15.5-2.22-.36-2.85l-1.33,1.89-1.1-.77,2.16-3.08,3.74,2.63-.73,1.04-.95-.5c.35.76.23,1.79-.4,2.68-1.3,1.85-3.57,2.08-5.55.69Z"/>
          <path class="cls-2" d="M25.36,24.65l-4.89-6.63,1.38-1.02,1.95,2.65,2.9-2.13-1.95-2.65,1.38-1.02,4.89,6.63-1.38,1.02-2.09-2.84-2.89,2.13,2.09,2.84-1.38,1.02Z"/>
          <path class="cls-2" d="M42.08,13.24c.28,1.46-.07,2.76-.94,3.66l1.21,1.35-1.57.3-.76-.85c-.34.16-.7.27-1.11.35-2.43.46-4.28-.95-4.72-3.32l-.05-.25c-.45-2.37.76-4.36,3.19-4.82,2.43-.46,4.26.95,4.71,3.33l.05.25ZM39.37,14.93l.7.78c.34-.54.43-1.27.27-2.14l-.05-.25c-.31-1.63-1.3-2.52-2.71-2.25-1.41.27-2,1.45-1.7,3.08l.05.25c.31,1.62,1.3,2.51,2.7,2.24.13-.02.25-.06.36-.09l-1.18-1.32,1.56-.29Z"/>
          <path class="cls-2" d="M44.47,14.06l.7-4.99,1.7.24-.69,4.95c-.17,1.24.27,1.98,1.46,2.15,1.17.16,1.81-.41,1.99-1.68l.69-4.94,1.7.24-.69,4.98c-.3,2.13-1.62,3.17-3.89,2.85-2.26-.32-3.26-1.67-2.96-3.8Z"/>
          <path class="cls-2" d="M57.16,20.99l.2-1.86-2.99-1.43-1.33,1.32-1.57-.75,6.37-6.09,1.69.81-.74,8.78-1.62-.78ZM55.41,16.65l2.1,1.01.36-3.47-2.46,2.46Z"/>
          <path class="cls-2" d="M59.57,22.59l5.48-6.14,1.28,1.14-4.55,5.1,2.43,2.17-.93,1.05-3.71-3.31Z"/>
          <path class="cls-2" d="M64.39,27.38l6.6-4.92,1.02,1.38-6.6,4.92-1.03-1.38Z"/>
          <path class="cls-2" d="M67.42,32.14l6.22-2.82-.97-2.13,1.28-.58,2.63,5.81-1.28.58-.96-2.12-6.22,2.82-.7-1.55Z"/>
          <path class="cls-2" d="M69.74,39.3l2.65-.37,5.12-3.56.25,1.83-3.65,2.39,4.16,1.29.25,1.78-5.89-2.03-2.65.37-.23-1.69Z"/>
        </g>
        <g>
          <path class="cls-2" d="M16.49,65.22l6-5.63,2.39,2.54c1.17,1.25,1.38,2.79.15,3.94l-.1.09c-1.23,1.16-2.74.86-3.92-.4l-1.24-1.32-2.13,2-1.15-1.23ZM20.8,63.48l1.12,1.19c.56.59,1.21.77,1.81.21l.1-.09c.6-.56.46-1.22-.1-1.82l-1.12-1.19-1.81,1.7Z"/>
          <path class="cls-2" d="M23.8,72.17l4.12-7.13,3.12,1.8c1.49.86,2.13,2.27,1.29,3.73l-.07.12c-.63,1.09-1.64,1.45-2.73,1.21l.23,3.71-1.67-.96-.16-3.46-1.21-.7-1.46,2.53-1.46-.84ZM27.42,69.25l1.52.88c.7.41,1.38.38,1.79-.32l.07-.12c.41-.71.08-1.3-.62-1.71l-1.52-.88-1.24,2.15Z"/>
          <path class="cls-2" d="M33.54,72.88l.05-.25c.5-2.36,2.37-3.73,4.79-3.23,2.42.51,3.57,2.51,3.08,4.88l-.05.25c-.5,2.36-2.36,3.74-4.78,3.23-2.42-.51-3.58-2.52-3.09-4.88ZM39.67,74.17l.05-.25c.34-1.62-.23-2.82-1.63-3.12s-2.41.57-2.75,2.2l-.05.25c-.34,1.61.24,2.81,1.64,3.1,1.41.3,2.41-.57,2.75-2.19Z"/>
          <path class="cls-2" d="M45.86,78.3l-.58-6.81-2.34.2-.12-1.4,6.36-.54.12,1.4-2.32.2.58,6.81-1.7.14Z"/>
          <path class="cls-2" d="M53.38,77.12l-2.94-7.69,5.53-2.11.5,1.31-3.94,1.5.69,1.81,3.59-1.37.5,1.3-3.59,1.37.75,1.96,4.02-1.53.5,1.31-5.6,2.14Z"/>
          <path class="cls-2" d="M62,73.17l-4.52-6.89,1.44-.94,4.52,6.89-1.44.94Z"/>
          <path class="cls-2" d="M66.58,70l-6.01-5.63,1.37-1.46,6.6,1.49-4.26-3.99,1.11-1.19,6.01,5.63-1.3,1.39-6.81-1.56,4.4,4.13-1.12,1.19Z"/>
        </g>
      </g>
      <path class="cls-1" d="M55.46,45.82c.15-.02.29-.08.39-.19l3.72-3.72c.11-.11.17-.25.19-.39h0c.26-2.3-1.71-5.88-3.79-9.68-1.89-3.45-3.85-7.02-3.64-8.9.03-.28-.12-.54-.37-.66-.25-.12-.55-.07-.75.13l-3.72,3.72c-.11.11-.17.24-.19.39-.25,2.3,1.71,5.88,3.79,9.68.23.43.47.85.7,1.29-.39-.25-.77-.5-1.16-.76-3.57-2.34-6.94-4.54-9.26-4.29-.15.02-.29.08-.39.19l-3.72,3.72c-.11.11-.17.25-.19.39h0c-.26,2.33,1.95,5.69,4.28,9.26.01.02.02.04.04.06-.02-.01-.04-.02-.06-.04-3.57-2.34-6.94-4.54-9.26-4.29-.15.02-.29.08-.39.19l-3.72,3.72c-.11.11-.17.25-.19.39h0c-.26,2.3,1.71,5.88,3.79,9.68,1.89,3.45,3.85,7.02,3.64,8.9-.02.2.05.4.19.54.05.05.11.09.18.13.25.12.55.07.75-.13l3.72-3.72c.11-.11.17-.24.19-.39.25-2.3-1.71-5.88-3.79-9.68-.23-.43-.47-.85-.7-1.29.39.25.77.5,1.16.76,3.57,2.34,6.94,4.54,9.26,4.29.15-.02.29-.08.39-.19l3.72-3.72c.11-.11.17-.25.19-.39h0c.26-2.33-1.95-5.7-4.28-9.26-.01-.02-.02-.04-.04-.06.02.01.04.02.06.04,3.57,2.34,6.94,4.54,9.26,4.29h0ZM52.25,35.56c-1.82-3.32-3.7-6.75-3.65-8.69l2.53-2.53c.45,2.21,2.03,5.1,3.69,8.13,1.71,3.12,3.48,6.34,3.64,8.32-1.17-.13-2.73-.9-4.43-1.92-.55-1.08-1.17-2.22-1.78-3.32h0ZM35.3,51.98c1.82,3.32,3.7,6.75,3.65,8.69l-2.53,2.53c-.45-2.21-2.03-5.1-3.69-8.13-1.71-3.12-3.48-6.34-3.64-8.32,1.17.13,2.73.9,4.43,1.92.55,1.08,1.17,2.22,1.78,3.32h0ZM45.81,53.82c-1.89.03-5.09-2.07-8.18-4.09-2.85-1.87-5.57-3.65-7.73-4.16l2.55-2.55c1.89-.03,5.09,2.07,8.18,4.09,2.85,1.87,5.57,3.65,7.73,4.16l-2.55,2.55ZM49.15,50.08c-1.32-.15-3.13-1.11-5.08-2.32-.51-.82-1.07-1.67-1.61-2.49-1.9-2.9-3.86-5.89-4.07-7.81,1.32.15,3.13,1.11,5.08,2.32.51.82,1.07,1.67,1.61,2.49,1.9,2.9,3.86,5.89,4.07,7.81ZM46.92,40.43c-2.85-1.87-5.57-3.65-7.73-4.16l2.55-2.55c1.89-.03,5.09,2.07,8.18,4.09,2.85,1.87,5.57,3.65,7.73,4.16l-2.55,2.55c-1.89.03-5.09-2.07-8.18-4.09Z"/>
    </g>
  </g>
</svg>