<?xml version="1.0" encoding="UTF-8"?>
<svg id="Layer_2" data-name="Layer 2" xmlns="http://www.w3.org/2000/svg" viewBox="0 0 87.54 87.54">
  <defs>
    <style>
      .cls-1 {
        stroke-width: .3px;
      }

      .cls-1, .cls-2 {
        fill: #001b72;
      }

      .cls-1, .cls-3 {
        stroke: #001b72;
        stroke-miterlimit: 10;
      }

      .cls-3 {
        fill: none;
        stroke-width: 2.5px;
      }
    </style>
  </defs>
  <g id="Isolation_Mode" data-name="Isolation Mode">
    <g>
      <path class="cls-3" d="M43.77,86.29c-23.45,0-42.52-19.07-42.52-42.52S20.32,1.25,43.77,1.25c23.45,0,42.52,19.07,42.52,42.52,0,23.45-19.07,42.52-42.52,42.52Z"/>
      <g>
        <polygon class="cls-1" points="43.77 60.3 30.23 44.43 31.66 43.21 43.77 57.41 55.88 43.21 57.31 44.43 43.77 60.3"/>
        <rect class="cls-1" x="42.83" y="32.36" width="1.88" height="26.5"/>
        <g>
          <g>
            <path class="cls-2" d="M17.53,46.92l-8.23.25-.05-1.72,6.83-.21-.1-3.26,1.4-.04.15,4.97Z"/>
            <path class="cls-2" d="M13.4,40.2l-.25-.06c-2.34-.59-3.63-2.53-3.02-4.92.61-2.4,2.66-3.47,5-2.87l.25.06c2.34.59,3.64,2.51,3.03,4.91-.61,2.4-2.67,3.48-5,2.88ZM14.94,34.12l-.25-.06c-1.61-.41-2.83.11-3.18,1.5-.35,1.39.47,2.43,2.08,2.84l.25.06c1.6.41,2.82-.12,3.17-1.51.35-1.39-.47-2.43-2.07-2.83Z"/>
            <path class="cls-2" d="M20.36,31.24l-7.95-3.05,1.03-1.44,5.79,2.42-4.06-4.84,1.05-1.46,5.89,2.34-4.17-4.74.98-1.37,5.43,6.56-1.1,1.54-5.7-2.23,3.94,4.68-1.14,1.59Z"/>
            <path class="cls-2" d="M34.18,19.16l-1.34-1.31-2.98,1.47.22,1.86-1.56.77-.84-8.77,1.68-.83,6.44,6.01-1.61.79ZM29.69,17.85l2.09-1.03-2.5-2.43.41,3.46Z"/>
            <path class="cls-2" d="M36.92,18.25l-1.42-8.11,1.69-.3,1.18,6.73,3.21-.56.24,1.38-4.9.86Z"/>
            <path class="cls-2" d="M43.41,17.35l.6-8.21,1.71.12-.5,6.81,3.25.24-.1,1.4-4.96-.36Z"/>
            <path class="cls-2" d="M49.86,17.99l2.75-7.76,5.57,1.98-.47,1.32-3.98-1.41-.65,1.82,3.62,1.28-.46,1.31-3.62-1.28-.7,1.98,4.05,1.44-.47,1.32-5.65-2Z"/>
            <path class="cls-2" d="M56.75,20.65l4.85-6.65,2.91,2.13c1.39,1.01,1.87,2.49.88,3.85l-.08.11c-.75,1.02-1.79,1.27-2.85.91l-.17,3.71-1.55-1.13.21-3.46-1.13-.83-1.72,2.36-1.36-.99ZM60.66,18.13l1.42,1.03c.66.48,1.34.53,1.81-.13l.08-.11c.49-.67.22-1.29-.43-1.77l-1.42-1.03-1.46,2Z"/>
            <path class="cls-2" d="M65.98,22.78l.21-.15c1.96-1.43,4.28-1.16,5.71.79,1.19,1.62.99,3.39-.21,4.57l-1.03-1.41c.6-.7.66-1.53.07-2.34-.84-1.14-2.18-1.12-3.49-.17l-.21.15c-1.31.96-1.7,2.26-.86,3.4.83,1.13,1.94,1.18,2.82.57l-1.36-1.86,1.09-.79,2.22,3.04-3.69,2.7-.75-1.03.78-.74c-.83.09-1.77-.36-2.42-1.24-1.34-1.83-.82-4.06,1.12-5.48Z"/>
            <path class="cls-2" d="M67.8,32.6l7.8-2.64,1.9,5.6-1.33.45-1.35-4-1.83.62,1.23,3.64-1.32.45-1.23-3.64-1.99.67,1.38,4.08-1.33.45-1.92-5.68Z"/>
            <path class="cls-2" d="M70.01,39.6l8.23-.21.05,2.01-5.75,3.57,5.83-.15.04,1.62-8.23.21-.05-1.9,5.94-3.66-6.03.15-.04-1.63Z"/>
          </g>
          <g>
            <path class="cls-2" d="M17.5,59.87l.2-.16c1.9-1.51,4.23-1.33,5.72.55,1.29,1.62,1.12,3.52-.31,4.84l-1.08-1.36c.81-.81.92-1.77.26-2.6-.87-1.09-2.21-1.03-3.47-.03l-.2.16c-1.26,1-1.61,2.3-.75,3.38.69.87,1.72.95,2.65.28l1.08,1.36c-1.61,1.12-3.53.94-4.86-.73-1.52-1.91-1.14-4.17.77-5.69Z"/>
            <path class="cls-2" d="M23.87,67.34l.14-.21c1.3-2.03,3.55-2.64,5.62-1.3,2.08,1.34,2.44,3.62,1.13,5.65l-.14.21c-1.3,2.03-3.54,2.65-5.61,1.31s-2.45-3.63-1.14-5.66ZM29.14,70.73l.14-.21c.9-1.39.79-2.71-.42-3.49-1.21-.78-2.45-.32-3.35,1.07l-.14.21c-.89,1.38-.78,2.71.42,3.48,1.21.78,2.45.32,3.34-1.06Z"/>
            <path class="cls-2" d="M32.13,76.53l1.95-8.01,1.95.47,1.95,6.48,1.38-5.67,1.58.38-1.95,8.01-1.85-.45-1.99-6.7-1.43,5.86-1.59-.39Z"/>
            <path class="cls-2" d="M44.95,78.34l-.4-6.82-2.34.14-.08-1.4,6.37-.37.08,1.4-2.33.13.4,6.82-1.7.1Z"/>
            <path class="cls-2" d="M52.48,77.37l-2.72-7.77,5.58-1.95.46,1.32-3.98,1.39.64,1.83,3.62-1.27.46,1.31-3.62,1.27.69,1.98,4.06-1.42.46,1.32-5.66,1.98Z"/>
            <path class="cls-2" d="M61.55,73.64l-4.91-6.61,1.61-1.2,6.22,2.64-3.48-4.68,1.3-.97,4.91,6.61-1.53,1.13-6.42-2.75,3.59,4.84-1.31.97Z"/>
            <path class="cls-2" d="M71.16,64.9l-5.51-4.04-1.39,1.89-1.13-.83,3.78-5.14,1.13.83-1.38,1.88,5.51,4.04-1.01,1.38Z"/>
          </g>
        </g>
      </g>
    </g>
  </g>
</svg>