<?xml version="1.0" encoding="UTF-8"?>
<svg id="Layer_2" data-name="Layer 2" xmlns="http://www.w3.org/2000/svg" viewBox="0 0 87.54 87.54">
  <defs>
    <style>
      .cls-1 {
        stroke-linejoin: round;
        stroke-width: 2px;
      }

      .cls-1, .cls-2 {
        fill: none;
        stroke: #001b72;
      }

      .cls-3 {
        fill: #001b72;
      }

      .cls-2 {
        stroke-miterlimit: 10;
        stroke-width: 2.5px;
      }
    </style>
  </defs>
  <g id="Isolation_Mode" data-name="Isolation Mode">
    <g>
      <g>
        <path class="cls-2" d="M43.77,86.29c-23.45,0-42.52-19.07-42.52-42.52,0-23.45,19.07-42.52,42.52-42.52s42.52,19.07,42.52,42.52c0,23.45-19.07,42.52-42.52,42.52Z"/>
        <g>
          <path class="cls-3" d="M19.41,33.54l-1.87.05-1.02,3.15,1.48,1.14-.54,1.65-6.87-5.5.58-1.78,8.79-.43-.55,1.71ZM15.35,35.84l.72-2.22-3.48.1,2.76,2.11Z"/>
          <path class="cls-3" d="M20.49,31.27l-6.88-4.53.94-1.43,5.71,3.76,1.79-2.72,1.17.77-2.74,4.16Z"/>
          <path class="cls-3" d="M24.01,26.24l-5.66-5.99,1.25-1.18,4.69,4.97,2.37-2.24.96,1.02-3.62,3.42Z"/>
          <path class="cls-3" d="M30.58,20.72l-3.11-7.63,1.86-.76,5.37,4.11-2.2-5.4,1.5-.61,3.11,7.63-1.76.72-5.53-4.26,2.28,5.59-1.51.62Z"/>
          <path class="cls-3" d="M43.96,17.36l-.76-1.71-3.31.26-.49,1.81-1.74.14,2.47-8.45,1.86-.14,3.75,7.97-1.79.14ZM40.28,14.48l2.33-.18-1.42-3.18-.9,3.36Z"/>
          <path class="cls-3" d="M47.16,17.66l1.09-6.75-2.31-.37.22-1.39,6.3,1.02-.22,1.39-2.3-.37-1.09,6.75-1.68-.27Z"/>
          <path class="cls-3" d="M53.25,15.59l2.15-4.55,1.55.73-2.14,4.52c-.54,1.13-.33,1.97.75,2.48,1.07.51,1.86.15,2.4-1.01l2.13-4.51,1.55.73-2.15,4.54c-.92,1.94-2.5,2.54-4.56,1.56-2.07-.98-2.61-2.57-1.69-4.51Z"/>
          <path class="cls-3" d="M59.02,22.08l5.5-6.13,2.69,2.41c1.28,1.15,1.61,2.67.49,3.92l-.09.1c-.84.94-1.91,1.08-2.92.62l-.54,3.68-1.43-1.29.56-3.42-1.04-.94-1.95,2.18-1.25-1.12ZM63.17,19.98l1.3,1.17c.6.54,1.28.66,1.82.06l.09-.1c.55-.61.35-1.26-.25-1.8l-1.3-1.17-1.66,1.85Z"/>
          <path class="cls-3" d="M67.48,32.08l1.18-1.45-1.72-2.84-1.83.38-.9-1.49,8.66-1.6.97,1.6-5.42,6.94-.93-1.54ZM68.39,27.5l1.21,1.99,2.2-2.7-3.41.71Z"/>
          <path class="cls-3" d="M68.48,34.35l7.92-2.24.47,1.65-6.57,1.86.89,3.13-1.35.38-1.35-4.79Z"/>
        </g>
        <g>
          <path class="cls-3" d="M9.61,49.13l8.1-1.46.3,1.69-8.1,1.46-.3-1.69Z"/>
          <path class="cls-3" d="M10.67,54.34l7.55-3.29.8,1.84-3.98,5.47,5.35-2.33.65,1.49-7.55,3.29-.76-1.74,4.12-5.63-5.53,2.41-.65-1.5Z"/>
          <path class="cls-3" d="M18.36,61.22l.19-.17c1.81-1.61,4.15-1.56,5.75.24,1.33,1.5,1.31,3.27.23,4.56l-1.16-1.3c.53-.75.51-1.59-.15-2.33-.94-1.06-2.28-.91-3.48.17l-.19.17c-1.21,1.08-1.47,2.41-.53,3.47.93,1.05,2.04.99,2.86.3l-1.53-1.72,1-.89,2.5,2.81-3.42,3.04-.85-.95.71-.81c-.82.17-1.8-.19-2.52-1-1.5-1.69-1.21-3.96.6-5.56Z"/>
          <path class="cls-3" d="M23.35,71.85l4.23-7.06,3.09,1.85c1.47.88,2.09,2.31,1.23,3.75l-.07.12c-.65,1.08-1.66,1.42-2.75,1.17l.17,3.71-1.65-.99-.1-3.46-1.2-.72-1.5,2.51-1.44-.86ZM27.02,68.99l1.5.9c.7.42,1.38.41,1.79-.29l.07-.12c.42-.71.1-1.3-.59-1.72l-1.5-.9-1.27,2.13Z"/>
          <path class="cls-3" d="M32.24,76.5l2.08-7.97,5.73,1.49-.35,1.36-4.09-1.07-.49,1.88,3.72.97-.35,1.35-3.72-.97-.53,2.03,4.17,1.09-.36,1.36-5.81-1.51Z"/>
          <path class="cls-3" d="M41.57,78.45l-.3-8.23,3.05-.11c2.47-.09,4.23,1.26,4.32,3.84v.25c.1,2.56-1.55,4.05-4.02,4.14l-3.05.11ZM43.21,76.98l1.24-.05c1.54-.06,2.49-.83,2.42-2.67v-.25c-.08-1.83-1.08-2.54-2.62-2.48l-1.24.05.2,5.4Z"/>
          <path class="cls-3" d="M52,77.38l-2.16-7.95,1.66-.45,2.16,7.95-1.66.45Z"/>
          <path class="cls-3" d="M56.99,75.87l-3.77-7.32,5.26-2.71.64,1.25-3.75,1.93.89,1.72,3.41-1.76.64,1.24-3.42,1.76.96,1.87,3.83-1.97.64,1.25-5.33,2.75Z"/>
          <path class="cls-3" d="M65.24,71.11l-5.72-5.93,1.44-1.39,6.51,1.82-4.05-4.2,1.17-1.13,5.72,5.93-1.37,1.32-6.72-1.9,4.19,4.34-1.18,1.14Z"/>
          <path class="cls-3" d="M73.51,61.44l-5.96-3.34-1.15,2.04-1.22-.69,3.12-5.56,1.22.69-1.14,2.03,5.96,3.34-.83,1.49Z"/>
          <path class="cls-3" d="M73.86,54.96l.42-1.65c.98.13,1.61-.43,1.86-1.44.24-.93.04-1.58-.61-1.75h-.04c-.6-.16-.99.19-1.67,1.67-.85,1.85-1.79,2.42-3.04,2.1l-.07-.02c-1.41-.36-2.02-1.8-1.56-3.6.45-1.79,1.66-2.81,3.35-2.53l-.42,1.65c-.84-.12-1.39.34-1.62,1.24-.23.9.07,1.44.63,1.58h.02c.51.13.88-.02,1.55-1.53.81-1.83,1.74-2.61,3.08-2.27l.07.02c1.48.38,2.13,1.92,1.66,3.81-.52,2.04-1.85,3.05-3.6,2.71Z"/>
        </g>
      </g>
      <g>
        <g>
          <path class="cls-1" d="M29.06,34.88c1.92,2.17,3.08,5.02,3.08,8.14s-1.16,5.97-3.08,8.14"/>
          <path class="cls-1" d="M63.26,43.02c0-2.09.55-4.06,1.5-5.77.25-.44-.2-.95-.66-.74-3.08,1.39-5.67,3.67-7.46,6.5,1.79,2.84,4.38,5.11,7.46,6.5.46.21.91-.3.66-.74-.96-1.71-1.5-3.67-1.5-5.77Z"/>
          <path class="cls-1" d="M38.26,32.84c2.68,0,5.25.49,7.62,1.37-.09-.62-.14-1.25-.14-1.89,0-1.57.28-3.08.8-4.47-.37-.03-.74-.05-1.12-.05-4.27,0-8.06,2.08-10.4,5.28,1.06-.16,2.14-.24,3.25-.24Z"/>
          <path class="cls-1" d="M38.26,53.19c2.68,0,5.25-.49,7.62-1.37-.09.62-.14,1.25-.14,1.89,0,1.57.28,3.08.8,4.47-.37.03-.74.05-1.12.05-4.27,0-8.06-2.08-10.4-5.28,1.06.16,2.14.24,3.25.24Z"/>
          <path class="cls-1" d="M38.26,32.84c-7.76,0-14.56,4.06-18.41,10.17,3.85,6.11,10.66,10.17,18.41,10.17,7.76,0,14.56-4.06,18.41-10.17-3.85-6.11-10.66-10.17-18.41-10.17Z"/>
        </g>
        <circle class="cls-1" cx="26.15" cy="43.01" r=".73"/>
      </g>
    </g>
  </g>
</svg>