<?xml version="1.0" encoding="UTF-8"?>
<svg id="Layer_2" data-name="Layer 2" xmlns="http://www.w3.org/2000/svg" viewBox="0 0 87.54 87.54">
  <defs>
    <style>
      .cls-1 {
        stroke-linejoin: round;
        stroke-width: 2px;
      }

      .cls-1, .cls-2 {
        fill: none;
        stroke: #001b72;
      }

      .cls-3 {
        fill: #001b72;
      }

      .cls-2 {
        stroke-miterlimit: 10;
        stroke-width: 2.5px;
      }
    </style>
  </defs>
  <g id="Isolation_Mode" data-name="Isolation Mode">
    <g>
      <path class="cls-2" d="M43.77,86.29c-23.45,0-42.52-19.07-42.52-42.52,0-23.45,19.07-42.52,42.52-42.52s42.52,19.07,42.52,42.52c0,23.45-19.07,42.52-42.52,42.52Z"/>
      <path class="cls-3" d="M23.48,26.71l-5.63-6.01,2.63-2.47c1.25-1.17,2.8-1.38,3.95-.15l.1.1c.86.92.91,1.99.36,2.97l3.62.86-1.41,1.32-3.36-.86-1.02.96,2,2.13-1.23,1.15ZM21.75,22.4l1.28-1.2c.59-.56.77-1.21.21-1.81l-.09-.1c-.56-.6-1.22-.46-1.82.1l-1.28,1.2,1.7,1.81Z"/>
      <path class="cls-3" d="M30.24,21.18l-4.01-7.19,1.5-.84,4.01,7.19-1.5.84Z"/>
      <path class="cls-3" d="M32.57,15.35l-.06-.25c-.6-2.35.51-4.4,2.83-5,2.01-.52,3.67.41,4.29,2.26l-1.68.43c-.41-1.07-1.24-1.56-2.27-1.3-1.35.35-1.84,1.6-1.44,3.16l.06.25c.4,1.56,1.44,2.41,2.78,2.06,1.08-.28,1.56-1.18,1.33-2.31l1.68-.43c.36,1.93-.58,3.61-2.65,4.14-2.36.61-4.28-.66-4.88-3.02Z"/>
      <path class="cls-3" d="M42.6,17.25l.71-8.2,1.71.15-.29,3.28,3.58.31.29-3.28,1.71.15-.71,8.2-1.71-.15.31-3.51-3.58-.31-.31,3.51-1.71-.15Z"/>
      <path class="cls-3" d="M55.18,20.03l3.81-7.3,1.52.79-3.81,7.3-1.52-.79Z"/>
      <path class="cls-3" d="M58.86,21.91l5.54-6.1,1.49,1.35-1.39,6.62,3.92-4.32,1.2,1.09-5.54,6.1-1.41-1.28,1.45-6.83-4.05,4.47-1.21-1.1Z"/>
      <path class="cls-3" d="M16.67,58.49l.21-.15c1.95-1.42,4.26-1.18,5.72.82,1.45,2,.96,4.26-.99,5.68l-.21.15c-1.95,1.42-4.26,1.19-5.71-.81s-.97-4.27.98-5.69ZM20.35,63.56l.21-.15c1.34-.97,1.73-2.24.88-3.41-.85-1.16-2.17-1.19-3.51-.21l-.21.15c-1.33.97-1.71,2.25-.87,3.4.85,1.16,2.17,1.19,3.5.22Z"/>
      <path class="cls-3" d="M21.55,70.62l4.41-6.96,2.08,1.32-1.56,6.23,4.96-4.08,1.98,1.25-4.41,6.96-1.37-.87,3.37-5.31-5.13,4.19-1.15-.73,1.6-6.44-3.37,5.32-1.4-.89Z"/>
      <path class="cls-3" d="M33.57,76.94l1.75-8.05,5.78,1.26-.3,1.37-4.13-.9-.41,1.89,3.75.82-.3,1.36-3.75-.82-.45,2.05,4.21.92-.3,1.37-5.86-1.28Z"/>
      <path class="cls-3" d="M42.96,74.59l-.03-.25c-.24-2.41,1.18-4.28,3.58-4.51,2-.2,3.42.87,3.83,2.51l-1.73.17c-.29-.87-.98-1.35-1.98-1.25-1.41.14-2.08,1.31-1.92,2.92l.02.25c.16,1.62,1.08,2.61,2.49,2.47,1.4-.14,2.01-1.07,1.92-2.14l-2.3.22-.13-1.34,3.74-.37.45,4.55-1.27.12-.24-1.05c-.35.76-1.21,1.34-2.3,1.45-2.25.22-3.91-1.36-4.15-3.76Z"/>
      <path class="cls-3" d="M60.66,74.04l-1.32-1.32-2.99,1.43.19,1.86-1.57.75-.73-8.77,1.69-.8,6.36,6.09-1.62.77ZM56.19,72.67l2.1-1-2.47-2.46.37,3.46Z"/>
      <path class="cls-3" d="M62.81,68.19l-.88-1,2.73-2.4.88,1-2.73,2.4Z"/>
      <path class="cls-3" d="M68.45,64.44l.96-1.41c.71.42,1.38.27,1.88-.46.48-.7.41-1.38-.16-1.77l-.11-.07c-.58-.4-1.22-.2-1.7.49l-.46.68-1.06-.73.46-.67c.41-.59.39-1.21-.13-1.56l-.11-.07c-.47-.32-1.07-.18-1.48.42-.47.69-.36,1.34.28,1.83l-.92,1.35c-1.28-.96-1.43-2.58-.49-3.95.9-1.32,2.32-1.83,3.43-1.07l.09.06c.67.46.92,1.26.72,2.04.69-.6,1.65-.77,2.48-.2l.11.07c1.2.82,1.26,2.41.23,3.92-1.07,1.57-2.61,2-4.01,1.1Z"/>
      <path class="cls-1" d="M29.06,34.88c1.92,2.17,3.08,5.02,3.08,8.14s-1.16,5.97-3.08,8.14"/>
      <path class="cls-1" d="M63.26,43.02c0-2.09.55-4.06,1.5-5.77.25-.44-.2-.95-.66-.74-3.08,1.39-5.67,3.67-7.46,6.5,1.79,2.84,4.38,5.11,7.46,6.5.46.21.91-.3.66-.74-.96-1.71-1.5-3.67-1.5-5.77Z"/>
      <path class="cls-1" d="M38.26,32.84c2.68,0,5.25.49,7.62,1.37-.09-.62-.14-1.25-.14-1.89,0-1.57.28-3.08.8-4.47-.37-.03-.74-.05-1.12-.05-4.27,0-8.06,2.08-10.4,5.28,1.06-.16,2.14-.24,3.25-.24Z"/>
      <path class="cls-1" d="M38.26,53.19c2.68,0,5.25-.49,7.62-1.37-.09.62-.14,1.25-.14,1.89,0,1.57.28,3.08.8,4.47-.37.03-.74.05-1.12.05-4.27,0-8.06-2.08-10.4-5.28,1.06.16,2.14.24,3.25.24Z"/>
      <path class="cls-1" d="M38.26,32.84c-7.76,0-14.56,4.06-18.41,10.17,3.85,6.11,10.66,10.17,18.41,10.17,7.76,0,14.56-4.06,18.41-10.17-3.85-6.11-10.66-10.17-18.41-10.17Z"/>
      <circle class="cls-1" cx="26.15" cy="43.01" r=".73"/>
    </g>
  </g>
</svg>