<?xml version="1.0" encoding="UTF-8"?>
<svg id="Layer_2" data-name="Layer 2" xmlns="http://www.w3.org/2000/svg" viewBox="0 0 95.68 42.03">
  <defs>
    <style>
      .cls-1 {
        fill: #fff;
      }
    </style>
  </defs>
  <g id="Isolation_Mode" data-name="Isolation Mode">
    <path class="cls-1" d="M40.88,10.6s1.11-.71,2.09-.61c1.87.2,2.97,1.47,2.98,3.16,0,1.7-1.4,3.25-3.08,3.25-.73,0-1.51-.26-1.83-.55-8.02,8.95-22.47,10.45-22.47,10.45,0,0,9.42,0,18.82-1.65,5.89-1.04,10.58-2.87,14.27-4.98,3.3-1.89,6.15-4.4,7.23-6.55-.55-.91-1.62-2.14-2.4-2.93C48.94,3.37,38.43,1.47,30.13.49,23.56-.13,18.53.01,18.53.01c17.38,2.8,22.35,10.59,22.35,10.59ZM93.21,3.63l.6.68.6-.68v.86h.64v-1.9h-.52l-.72.83-.71-.83h-.53v1.9h.64v-.86ZM22.49,10.6s1.1-.71,2.08-.61c1.87.2,2.97,1.47,2.98,3.16,0,1.7-1.4,3.25-3.08,3.25-.73,0-1.51-.26-1.83-.55C14.62,24.81.17,26.3.17,26.3c0,0,9.42,0,18.82-1.65,5.89-1.04,10.57-2.87,14.27-4.98,3.3-1.89,6.15-4.4,7.22-6.55-.55-.91-1.62-2.14-2.4-2.93C30.54,3.37,20.03,1.47,11.74.49,5.16-.13.14.01.14.01c17.38,2.8,22.35,10.59,22.35,10.59ZM8.03,35.68c-.63-.06-1.23-.08-1.76-.1-1.14-.04-2.05-.08-2.64-.44-.22-.14-.3-.25-.3-.4,0-.51,1.02-.89,2.38-.89,1.54,0,2.97.45,4.63,1.45l.11.07,1.51-1.69-.17-.09c-2.06-1.14-4.06-1.69-6.11-1.69-2.93,0-4.98,1.19-4.98,2.9,0,.97.69,1.76,1.96,2.22,1.08.4,2.44.47,4.01.56.28.02.57.03.87.05,1.32.09,2.14.51,2.14,1.09,0,.8-1.23,1.36-2.99,1.36-1.62,0-3.28-.53-5.08-1.63l-.11-.07-1.49,1.69.15.1c2.04,1.28,4.07,1.85,6.56,1.85,3.84,0,5.59-1.7,5.59-3.28,0-1.66-1.64-2.84-4.27-3.07ZM59.28,10.6s1.1-.71,2.08-.61c1.87.2,2.98,1.47,2.98,3.16,0,1.7-1.4,3.25-3.08,3.25-.73,0-1.5-.26-1.83-.55-8.02,8.95-22.46,10.45-22.46,10.45,0,0,9.42,0,18.82-1.65,5.89-1.04,10.58-2.87,14.27-4.98,3.3-1.89,6.15-4.4,7.23-6.55-.54-.91-1.62-2.14-2.39-2.93C67.33,3.37,56.83,1.47,48.53.49,41.95-.13,36.93.01,36.93.01c17.38,2.8,22.35,10.59,22.35,10.59ZM90.91,4.49h.65v-1.37h.84v-.54h-2.33v.54h.85v1.37ZM77.67,10.6s1.11-.71,2.08-.61c1.87.2,2.98,1.47,2.98,3.16,0,1.7-1.4,3.25-3.08,3.25-.73,0-1.5-.26-1.83-.55-8.02,8.95-22.46,10.45-22.46,10.45,0,0,9.41,0,18.82-1.65,5.89-1.04,10.58-2.87,14.27-4.98,3.3-1.89,6.14-4.4,7.22-6.55-.54-.91-1.62-2.14-2.39-2.93C85.73,3.37,75.22,1.47,66.93.49,60.35-.13,55.33.01,55.33.01c17.38,2.8,22.34,10.59,22.34,10.59ZM80.2,35c0-1.81-1.54-2.9-4.13-2.9h-7.1v9.69h2.57v-3.83h3.53l2.85,3.83h2.88s-2.98-4.02-2.98-4.02c1.48-.43,2.39-1.47,2.39-2.77ZM77.56,35.04c0,.63-.53.95-1.58.95h-4.45v-1.94h4.51c.89,0,1.43.3,1.52.83v.16ZM60.52,31.89c-3.75,0-6.46,2.14-6.46,5.08s2.72,5.05,6.46,5.05,6.48-2.13,6.48-5.05-2.72-5.08-6.48-5.08ZM60.52,40.06c-2.23,0-3.85-1.3-3.85-3.08s1.62-3.12,3.85-3.12,3.86,1.31,3.86,3.12-1.62,3.08-3.86,3.08ZM88.5,32.1h-5.45v9.69h5.45c3.98,0,6.55-1.89,6.55-4.81s-2.63-4.88-6.55-4.88ZM92.43,36.96c0,1.78-1.51,2.88-3.93,2.88h-2.88s0-5.79,0-5.79h2.88c2.29,0,3.85,1.1,3.94,2.76v.16ZM35.15,32.1h-1.89l-6.01,9.45-.15.24h2.83l1.5-2.35h5.57l1.53,2.35h2.87l-6.2-9.62-.05-.07ZM32.67,37.47l1.54-2.39,1.55,2.39h-3.09ZM45.72,32.1h-2.57v9.69h9.99v-1.95h-7.42s0-7.74,0-7.74ZM17.41,37.63h4.56v-1.95h-4.56v-1.63h7.53v-1.95h-10.09v9.69h10.56v-1.95h-8v-2.21Z"/>
  </g>
</svg>